<?xml version="1.0" standalone="no"?>
<!DOCTYPE svg PUBLIC "-//W3C//DTD SVG 20010904//EN"
 "http://www.w3.org/TR/2001/REC-SVG-20010904/DTD/svg10.dtd">
<svg version="1.0" xmlns="http://www.w3.org/2000/svg"
 width="800.000000pt" height="800.000000pt" viewBox="0 0 800.000000 800.000000"
 preserveAspectRatio="xMidYMid meet">
<metadata>
Created by potrace 1.14, written by Peter Selinger 2001-2017
</metadata>
<g transform="translate(0.000000,800.000000) scale(0.100000,-0.100000)"
fill="#000000" stroke="none">
<path d="M0 4000 l0 -4000 4000 0 4000 0 0 4000 0 4000 -4000 0 -4000 0 0
-4000z m7990 3077 l0 -912 -208 -104 c-184 -92 -211 -102 -230 -92 -13 7 -32
9 -42 6 -17 -5 -20 -2 -20 24 0 58 -19 31 -22 -31 l-3 -63 -280 -142 c-154
-78 -283 -142 -287 -143 -5 0 -8 7 -8 15 0 23 -18 18 -22 -7 -2 -18 -57 -48
-291 -165 -256 -127 -290 -141 -312 -131 -30 13 -72 -10 -80 -45 -5 -18 -58
-49 -258 -148 -252 -125 -252 -126 -317 -123 -93 3 -100 0 -100 -47 l0 -40
-247 -119 c-163 -80 -253 -118 -265 -114 -34 10 -68 -4 -68 -29 0 -19 -33 -39
-235 -140 -226 -112 -235 -116 -235 -92 l0 25 -140 0 -140 0 0 -95 0 -95 -227
-114 c-194 -96 -231 -112 -251 -103 -30 13 -70 -5 -77 -36 -5 -18 -41 -41
-163 -102 l-157 -80 98 -3 97 -3 0 -139 0 -140 -140 0 -140 0 0 120 c0 66 -4
120 -8 120 -25 0 -32 -30 -32 -132 l0 -108 -140 0 -140 0 0 41 c0 33 -3 40
-15 35 -8 -3 -22 -9 -30 -12 -13 -5 -15 9 -15 90 l0 96 -120 0 -120 0 0 -120
0 -120 73 0 c67 -1 70 -2 47 -15 -14 -8 -49 -14 -77 -15 -29 0 -53 -4 -53 -10
0 -6 52 -10 135 -10 l135 0 0 -140 0 -140 -140 0 -140 0 0 118 c0 111 -9 156
-27 138 -4 -4 -9 -63 -11 -132 l-4 -124 -139 0 -139 0 0 40 c0 22 -2 40 -5 40
-3 0 -107 -49 -232 -110 -161 -78 -232 -108 -248 -104 -29 7 -62 -10 -70 -36
-10 -31 -536 -293 -570 -284 -20 5 -32 -1 -58 -29 -23 -25 -110 -74 -305 -171
-150 -75 -278 -134 -283 -130 -6 3 -17 -3 -25 -15 -19 -27 -44 -27 -44 -1 0
12 -7 20 -16 20 -12 0 -14 -7 -10 -27 6 -27 3 -30 -189 -125 l-195 -98 0 2895
0 2895 3990 0 3990 0 0 -913z m-464 -1142 c-25 -19 -36 -19 -36 0 0 10 10 15
28 15 26 -1 26 -1 8 -15z m-1286 -640 c-27 -14 -36 -13 -25 4 3 6 16 11 28 11
21 -1 21 -1 -3 -15z m-655 -314 c3 -6 -3 -15 -14 -20 -27 -15 -31 -14 -31 9 0
21 33 29 45 11z m-1905 -955 c0 -2 -7 -7 -16 -10 -8 -3 -12 -2 -9 4 6 10 25
14 25 6z m140 -336 l0 -140 -140 0 -140 0 0 140 0 140 140 0 140 0 0 -140z
m-640 -320 l0 -140 -140 0 -140 0 0 140 0 140 140 0 140 0 0 -140z m320 0 l0
-140 -140 0 -140 0 0 140 0 140 140 0 140 0 0 -140z m320 0 l0 -140 -140 0
-140 0 0 140 0 140 140 0 140 0 0 -140z m0 -320 l0 -140 -140 0 -140 0 0 140
0 140 140 0 140 0 0 -140z m0 -320 l0 -140 -140 0 -140 0 0 140 0 140 140 0
140 0 0 -140z m0 -320 l0 -140 -140 0 -140 0 0 140 0 140 140 0 140 0 0 -140z
m0 -320 l0 -140 -140 0 -140 0 0 140 0 140 140 0 140 0 0 -140z m0 -320 l0
-140 -140 0 -140 0 0 140 0 140 140 0 140 0 0 -140z m320 0 l0 -140 -140 0
-140 0 0 140 0 140 140 0 140 0 0 -140z m0 -320 l0 -140 -140 0 -140 0 0 140
0 140 140 0 140 0 0 -140z m320 0 l0 -140 -140 0 -140 0 0 140 0 140 140 0
140 0 0 -140z m-320 -320 l0 -140 -140 0 -140 0 0 140 0 140 140 0 140 0 0
-140z m320 0 l0 -140 -140 0 -140 0 0 140 0 140 140 0 140 0 0 -140z m-640
-320 l0 -140 -140 0 -140 0 0 140 0 140 140 0 140 0 0 -140z m320 0 l0 -140
-140 0 -140 0 0 140 0 140 140 0 140 0 0 -140z m-320 -320 l0 -140 -140 0
-140 0 0 140 0 140 140 0 140 0 0 -140z m320 0 l0 -140 -140 0 -140 0 0 140 0
140 140 0 140 0 0 -140z m320 0 l0 -140 -140 0 -140 0 0 140 0 140 140 0 140
0 0 -140z m-640 -320 l0 -140 -140 0 -140 0 0 140 0 140 140 0 140 0 0 -140z
m320 0 l0 -140 -140 0 -140 0 0 140 0 140 140 0 140 0 0 -140z m320 0 l0 -140
-140 0 -140 0 0 140 0 140 140 0 140 0 0 -140z m320 0 l0 -140 -140 0 -140 0
0 140 0 140 140 0 140 0 0 -140z"/>
<path d="M4150 7840 c0 -80 4 -130 10 -130 6 0 10 50 10 130 0 80 -4 130 -10
130 -6 0 -10 -50 -10 -130z"/>
<path d="M4470 7840 c0 -80 4 -130 10 -130 6 0 10 50 10 130 0 80 -4 130 -10
130 -6 0 -10 -50 -10 -130z"/>
<path d="M4790 7840 c0 -80 4 -130 10 -130 6 0 10 50 10 130 0 80 -4 130 -10
130 -6 0 -10 -50 -10 -130z"/>
<path d="M3880 7840 l0 -120 120 0 120 0 0 120 0 120 -120 0 -120 0 0 -120z
m205 79 c15 -15 13 -145 -3 -161 -8 -8 -39 -13 -82 -13 -43 0 -74 5 -82 13
-17 17 -18 146 -1 163 23 23 33 -2 33 -82 0 -64 3 -79 15 -79 12 0 15 13 15
55 0 47 3 55 19 55 23 0 31 -19 31 -71 0 -28 4 -39 15 -39 11 0 15 12 15 48 0
57 -21 92 -56 92 -18 0 -24 5 -24 21 0 20 4 21 47 15 26 -3 52 -11 58 -17z"/>
<path d="M4200 7840 l0 -120 120 0 120 0 0 120 0 120 -120 0 -120 0 0 -120z
m199 86 c15 -10 24 -91 14 -133 -8 -34 -13 -39 -51 -47 -25 -5 -60 -5 -84 0
-40 8 -44 12 -52 52 -13 62 2 124 34 134 27 8 123 3 139 -6z"/>
<path d="M4280 7885 c0 -9 9 -15 24 -15 14 0 28 -4 31 -10 3 -5 -3 -10 -13
-10 -11 0 -30 -8 -43 -19 -21 -16 -22 -22 -11 -45 10 -22 18 -26 57 -26 l45 0
0 54 c0 36 -5 60 -16 70 -20 21 -74 21 -74 1z m60 -85 c0 -21 -16 -26 -39 -11
-18 11 -5 31 20 31 12 0 19 -7 19 -20z"/>
<path d="M4520 7840 l0 -120 120 0 120 0 0 120 0 120 -120 0 -120 0 0 -120z
m199 86 c15 -10 24 -91 14 -133 -8 -34 -13 -39 -51 -47 -25 -5 -60 -5 -84 0
-40 8 -44 12 -52 52 -13 62 2 124 34 134 27 8 123 3 139 -6z"/>
<path d="M4606 7885 c-25 -25 -19 -44 19 -66 40 -24 37 -43 -6 -34 -22 5 -29
3 -29 -9 0 -12 10 -16 38 -16 68 0 86 49 27 77 -38 18 -37 33 1 33 16 0 24 5
22 13 -7 19 -53 20 -72 2z"/>
<path d="M4840 7840 l0 -120 120 0 120 0 0 120 0 120 -120 0 -120 0 0 -120z
m199 86 c15 -10 24 -91 14 -133 -8 -34 -13 -39 -51 -47 -25 -5 -60 -5 -84 0
-40 8 -44 12 -52 52 -13 62 2 124 34 134 27 8 123 3 139 -6z"/>
<path d="M4922 7884 c-16 -11 -22 -25 -22 -54 0 -46 21 -70 60 -70 39 0 60 24
60 70 0 40 -26 70 -60 70 -9 0 -26 -7 -38 -16z m66 -50 c4 -38 -20 -63 -43
-44 -15 13 -21 61 -8 74 4 4 16 6 28 4 14 -2 21 -12 23 -34z"/>
<path d="M780 7874 c0 -79 11 -114 35 -114 17 0 20 16 5 25 -5 3 -10 42 -10
86 0 64 -3 79 -15 79 -12 0 -15 -15 -15 -76z"/>
<path d="M2700 7874 c0 -79 11 -114 35 -114 17 0 20 16 5 25 -5 3 -10 42 -10
86 0 64 -3 79 -15 79 -12 0 -15 -15 -15 -76z"/>
<path d="M3340 7874 c0 -79 11 -114 35 -114 17 0 20 16 5 25 -5 3 -10 42 -10
86 0 64 -3 79 -15 79 -12 0 -15 -15 -15 -76z"/>
<path d="M5260 7874 c0 -79 11 -114 35 -114 17 0 20 16 5 25 -5 3 -10 42 -10
86 0 64 -3 79 -15 79 -12 0 -15 -15 -15 -76z"/>
<path d="M6544 7939 c-10 -17 13 -36 27 -22 12 12 4 33 -11 33 -5 0 -12 -5
-16 -11z"/>
<path d="M7150 7855 l0 -95 38 0 c25 0 45 7 55 18 40 44 3 131 -49 118 -21 -6
-24 -3 -24 24 0 16 -4 30 -10 30 -6 0 -10 -38 -10 -95z m78 -24 c4 -35 -9 -51
-40 -51 -15 0 -18 9 -18 46 0 44 1 45 28 42 23 -3 28 -8 30 -37z"/>
<path d="M1730 7856 c0 -52 4 -77 14 -86 17 -13 58 -10 54 5 -1 6 -9 9 -17 7
-19 -5 -31 16 -31 56 0 28 3 32 25 32 14 0 25 5 25 10 0 6 -11 10 -25 10 -18
0 -25 5 -25 20 0 11 -4 20 -10 20 -6 0 -10 -31 -10 -74z"/>
<path d="M123 7893 c-16 -6 -18 -133 -3 -133 6 0 10 25 10 56 0 54 0 55 28 52
25 -3 27 -6 30 -56 4 -73 28 -65 25 8 -1 69 -35 96 -90 73z"/>
<path d="M440 7880 c-26 -26 -26 -81 -2 -103 24 -22 65 -21 85 1 37 40 7 122
-43 122 -11 0 -29 -9 -40 -20z m68 -51 c2 -26 -2 -38 -12 -42 -28 -11 -46 4
-46 37 0 39 7 48 35 44 15 -2 21 -12 23 -39z"/>
<path d="M1080 7880 c-26 -26 -26 -81 -2 -103 24 -22 65 -21 85 1 37 40 7 122
-43 122 -11 0 -29 -9 -40 -20z m68 -51 c2 -26 -2 -38 -12 -42 -28 -11 -46 4
-46 37 0 39 7 48 35 44 15 -2 21 -12 23 -39z"/>
<path d="M1418 7889 c-29 -17 -22 -55 12 -69 37 -15 34 -35 -6 -35 -41 -1 -36
-19 7 -23 67 -6 78 46 16 76 -36 17 -34 32 4 32 20 0 29 4 27 13 -6 16 -38 20
-60 6z"/>
<path d="M2054 7875 c-46 -46 -17 -115 48 -115 16 0 28 5 28 13 0 7 -11 13
-26 12 -33 0 -49 24 -40 58 5 22 12 27 37 27 20 0 29 4 27 13 -8 23 -47 19
-74 -8z"/>
<path d="M2367 7893 c-15 -14 -6 -23 23 -23 20 0 30 -5 30 -15 0 -10 -10 -15
-30 -15 -36 0 -56 -30 -40 -60 8 -15 21 -20 55 -20 l45 0 0 53 c0 40 -5 58
-18 70 -19 17 -53 22 -65 10z m53 -93 c0 -13 -7 -20 -19 -20 -22 0 -35 15 -26
30 12 19 45 11 45 -10z"/>
<path d="M2963 7893 c-20 -7 -18 -133 2 -133 12 0 15 13 15 56 0 52 1 55 23
52 19 -3 22 -10 25 -55 4 -70 22 -68 22 2 0 52 1 55 25 55 24 0 25 -3 25 -55
0 -42 3 -55 15 -55 11 0 15 12 15 53 0 74 -7 81 -87 83 -37 1 -74 -1 -80 -3z"/>
<path d="M3645 7875 c-49 -48 -19 -115 51 -115 24 0 34 4 31 13 -2 6 -14 11
-26 9 -22 -3 -51 13 -51 29 0 5 20 9 45 9 38 0 45 3 45 20 0 24 -34 60 -55 60
-9 0 -27 -11 -40 -25z m63 -22 c2 -9 -7 -13 -27 -13 -30 0 -39 9 -24 24 11 10
46 3 51 -11z"/>
<path d="M5578 7889 c-29 -17 -22 -55 12 -69 37 -15 34 -35 -6 -35 -41 -1 -36
-19 7 -23 67 -6 78 46 16 76 -36 17 -34 32 4 32 20 0 29 4 27 13 -6 16 -38 20
-60 6z"/>
<path d="M5885 7875 c-49 -48 -19 -115 51 -115 24 0 34 4 31 13 -2 6 -14 11
-26 9 -22 -3 -51 13 -51 29 0 5 20 9 45 9 38 0 45 3 45 20 0 24 -34 60 -55 60
-9 0 -27 -11 -40 -25z m63 -22 c2 -9 -7 -13 -27 -13 -30 0 -39 9 -24 24 11 10
46 3 51 -11z"/>
<path d="M6203 7893 c-16 -6 -18 -133 -3 -133 6 0 10 25 10 56 0 54 0 55 28
52 25 -3 27 -6 30 -56 4 -73 28 -65 25 8 -1 69 -35 96 -90 73z"/>
<path d="M6840 7880 c-26 -26 -26 -81 -2 -103 24 -22 65 -21 85 1 37 40 7 122
-43 122 -11 0 -29 -9 -40 -20z m68 -51 c2 -26 -2 -38 -12 -42 -28 -11 -46 4
-46 37 0 39 7 48 35 44 15 -2 21 -12 23 -39z"/>
<path d="M7498 7889 c-29 -17 -22 -55 12 -69 37 -15 34 -35 -6 -35 -41 -1 -36
-19 7 -23 67 -6 78 46 16 76 -36 17 -34 32 4 32 20 0 29 4 27 13 -6 16 -38 20
-60 6z"/>
<path d="M7805 7875 c-49 -48 -19 -115 51 -115 24 0 34 4 31 13 -2 6 -14 11
-26 9 -22 -3 -51 13 -51 29 0 5 20 9 45 9 38 0 45 3 45 20 0 24 -34 60 -55 60
-9 0 -27 -11 -40 -25z m63 -22 c2 -9 -7 -13 -27 -13 -30 0 -39 9 -24 24 11 10
46 3 51 -11z"/>
<path d="M6550 7825 c0 -37 4 -65 10 -65 6 0 10 28 10 65 0 37 -4 65 -10 65
-6 0 -10 -28 -10 -65z"/>
<path d="M4830 7680 c0 -6 50 -10 130 -10 80 0 130 4 130 10 0 6 -50 10 -130
10 -80 0 -130 -4 -130 -10z"/>
<path d="M3860 7520 l0 -140 140 0 140 0 0 140 0 140 -140 0 -140 0 0 -140z"/>
<path d="M4840 7520 l0 -120 120 0 120 0 0 120 0 120 -120 0 -120 0 0 -120z
m199 86 c15 -10 24 -91 14 -133 -8 -34 -13 -39 -51 -47 -25 -5 -60 -5 -84 0
-40 8 -44 12 -52 52 -13 62 2 124 34 134 27 8 123 3 139 -6z"/>
<path d="M4920 7565 c0 -9 9 -15 24 -15 14 0 28 -4 31 -10 3 -5 -3 -10 -13
-10 -11 0 -30 -8 -43 -19 -21 -16 -22 -22 -11 -45 10 -22 18 -26 57 -26 l45 0
0 54 c0 36 -5 60 -16 70 -20 21 -74 21 -74 1z m60 -85 c0 -21 -16 -26 -39 -11
-18 11 -5 31 20 31 12 0 19 -7 19 -20z"/>
<path d="M110 7535 l0 -95 38 0 c25 0 45 7 55 18 40 44 3 131 -49 118 -21 -6
-24 -3 -24 24 0 16 -4 30 -10 30 -6 0 -10 -38 -10 -95z m78 -24 c4 -35 -9 -51
-40 -51 -15 0 -18 9 -18 46 0 44 1 45 28 42 23 -3 28 -8 30 -37z"/>
<path d="M1070 7535 c0 -57 4 -95 10 -95 6 0 10 25 10 56 0 54 0 55 28 52 25
-3 27 -6 30 -56 4 -73 28 -65 25 8 -1 58 -18 80 -60 80 -18 0 -23 6 -23 25 0
14 -4 25 -10 25 -6 0 -10 -38 -10 -95z"/>
<path d="M3660 7554 c0 -79 11 -114 35 -114 17 0 20 16 5 25 -5 3 -10 42 -10
86 0 64 -3 79 -15 79 -12 0 -15 -15 -15 -76z"/>
<path d="M4270 7535 l0 -95 38 0 c25 0 45 7 55 18 40 44 3 131 -49 118 -21 -6
-24 -3 -24 24 0 16 -4 30 -10 30 -6 0 -10 -38 -10 -95z m78 -24 c4 -35 -9 -51
-40 -51 -15 0 -18 9 -18 46 0 44 1 45 28 42 23 -3 28 -8 30 -37z"/>
<path d="M5870 7535 c0 -57 4 -95 10 -95 6 0 10 25 10 56 0 54 0 55 28 52 25
-3 27 -6 30 -56 4 -73 28 -65 25 8 -1 58 -18 80 -60 80 -18 0 -23 6 -23 25 0
14 -4 25 -10 25 -6 0 -10 -38 -10 -95z"/>
<path d="M1410 7536 c0 -52 4 -77 14 -86 17 -13 58 -10 54 5 -1 6 -9 9 -17 7
-19 -5 -31 16 -31 56 0 28 3 32 25 32 14 0 25 5 25 10 0 6 -11 10 -25 10 -18
0 -25 5 -25 20 0 11 -4 20 -10 20 -6 0 -10 -31 -10 -74z"/>
<path d="M403 7573 c-20 -7 -18 -133 2 -133 12 0 15 13 15 56 0 52 1 55 23 52
19 -3 22 -10 25 -55 4 -70 22 -68 22 2 0 52 1 55 25 55 24 0 25 -3 25 -55 0
-42 3 -55 15 -55 11 0 15 12 15 53 0 74 -7 81 -87 83 -37 1 -74 -1 -80 -3z"/>
<path d="M760 7560 c-26 -26 -26 -81 -2 -103 24 -22 65 -21 85 1 37 40 7 122
-43 122 -11 0 -29 -9 -40 -20z m68 -51 c2 -26 -2 -38 -12 -42 -28 -11 -46 4
-46 37 0 39 7 48 35 44 15 -2 21 -12 23 -39z"/>
<path d="M2054 7555 c-46 -46 -17 -115 48 -115 16 0 28 5 28 13 0 7 -11 13
-26 12 -33 0 -49 24 -40 58 5 22 12 27 37 27 20 0 29 4 27 13 -8 23 -47 19
-74 -8z"/>
<path d="M2378 7569 c-29 -17 -22 -55 12 -69 37 -15 34 -35 -6 -35 -41 -1 -36
-19 7 -23 67 -6 78 46 16 76 -36 17 -34 32 4 32 20 0 29 4 27 13 -6 16 -38 20
-60 6z"/>
<path d="M2687 7573 c-15 -14 -6 -23 23 -23 20 0 30 -5 30 -15 0 -10 -10 -15
-30 -15 -36 0 -56 -30 -40 -60 8 -15 21 -20 55 -20 l45 0 0 53 c0 40 -5 58
-18 70 -19 17 -53 22 -65 10z m53 -93 c0 -13 -7 -20 -19 -20 -22 0 -35 15 -26
30 12 19 45 11 45 -10z"/>
<path d="M3005 7555 c-49 -48 -19 -115 51 -115 24 0 34 4 31 13 -2 6 -14 11
-26 9 -22 -3 -51 13 -51 29 0 5 20 9 45 9 38 0 45 3 45 20 0 24 -34 60 -55 60
-9 0 -27 -11 -40 -25z m63 -22 c2 -9 -7 -13 -27 -13 -30 0 -39 9 -24 24 11 10
46 3 51 -11z"/>
<path d="M4603 7573 c-16 -6 -18 -133 -3 -133 6 0 10 25 10 56 0 54 0 55 28
52 25 -3 27 -6 30 -56 4 -73 28 -65 25 8 -1 69 -35 96 -90 73z"/>
<path d="M5245 7555 c-49 -48 -19 -115 51 -115 24 0 34 4 31 13 -2 6 -14 11
-26 9 -22 -3 -51 13 -51 29 0 5 20 9 45 9 38 0 45 3 45 20 0 24 -34 60 -55 60
-9 0 -27 -11 -40 -25z m63 -22 c2 -9 -7 -13 -27 -13 -30 0 -39 9 -24 24 11 10
46 3 51 -11z"/>
<path d="M5563 7573 c-16 -6 -18 -133 -3 -133 6 0 10 25 10 56 0 54 0 55 28
52 25 -3 27 -6 30 -56 4 -73 28 -65 25 8 -1 69 -35 96 -90 73z"/>
<path d="M6223 7574 c-20 -9 -18 -134 2 -134 11 0 15 13 15 54 0 49 2 55 23
58 12 2 21 8 20 13 -3 11 -41 17 -60 9z"/>
<path d="M6527 7573 c-15 -14 -6 -23 23 -23 20 0 30 -5 30 -15 0 -10 -10 -15
-30 -15 -36 0 -56 -30 -40 -60 8 -15 21 -20 55 -20 l45 0 0 53 c0 40 -5 58
-18 70 -19 17 -53 22 -65 10z m53 -93 c0 -21 -33 -29 -45 -10 -9 15 4 30 26
30 12 0 19 -7 19 -20z"/>
<path d="M6863 7574 c-20 -9 -18 -134 2 -134 11 0 15 13 15 54 0 49 2 55 23
58 12 2 21 8 20 13 -3 11 -41 17 -60 9z"/>
<path d="M7165 7555 c-49 -48 -19 -115 51 -115 24 0 34 4 31 13 -2 6 -14 11
-26 9 -22 -3 -51 13 -51 29 0 5 20 9 45 9 38 0 45 3 45 20 0 24 -34 60 -55 60
-9 0 -27 -11 -40 -25z m63 -22 c2 -9 -7 -13 -27 -13 -30 0 -39 9 -24 24 11 10
46 3 51 -11z"/>
<path d="M7487 7573 c-15 -14 -6 -23 23 -23 20 0 30 -5 30 -15 0 -10 -10 -15
-30 -15 -36 0 -56 -30 -40 -60 8 -15 21 -20 55 -20 l45 0 0 53 c0 40 -5 58
-18 70 -19 17 -53 22 -65 10z m53 -93 c0 -21 -33 -29 -45 -10 -9 15 4 30 26
30 12 0 19 -7 19 -20z"/>
<path d="M7814 7555 c-46 -46 -17 -115 48 -115 16 0 28 5 28 13 0 7 -11 13
-26 12 -33 0 -49 24 -40 58 5 22 12 27 37 27 20 0 29 4 27 13 -8 23 -47 19
-74 -8z"/>
<path d="M1710 7517 c0 -63 11 -77 62 -77 l38 0 0 65 c0 37 -4 65 -10 65 -5 0
-10 -25 -10 -55 0 -46 -3 -55 -18 -55 -29 0 -42 21 -42 67 0 24 -4 43 -10 43
-5 0 -10 -24 -10 -53z"/>
<path d="M3310 7517 c0 -63 11 -77 62 -77 l38 0 0 65 c0 37 -4 65 -10 65 -5 0
-10 -25 -10 -55 0 -46 -3 -55 -18 -55 -29 0 -42 21 -42 67 0 24 -4 43 -10 43
-5 0 -10 -24 -10 -53z"/>
<path d="M4830 7360 c0 -6 50 -10 130 -10 80 0 130 4 130 10 0 6 -50 10 -130
10 -80 0 -130 -4 -130 -10z"/>
<path d="M3540 7200 l0 -140 140 0 140 0 0 140 0 140 -140 0 -140 0 0 -140z"/>
<path d="M3860 7200 l0 -140 140 0 140 0 0 140 0 140 -140 0 -140 0 0 -140z"/>
<path d="M4840 7200 l0 -120 120 0 120 0 0 120 0 120 -120 0 -120 0 0 -120z
m204 80 c14 -14 15 -145 1 -159 -16 -16 -105 -26 -105 -12 0 6 13 11 30 11 35
0 50 23 50 74 0 38 -28 66 -66 66 -49 0 -54 -8 -54 -82 0 -80 -19 -91 -34 -20
-13 62 3 124 34 134 33 10 130 2 144 -12z m-56 -86 c3 -34 -17 -58 -42 -48
-11 4 -16 18 -16 46 0 37 2 39 28 36 22 -2 28 -9 30 -34z"/>
<path d="M2380 7234 c0 -79 11 -114 35 -114 17 0 20 16 5 25 -5 3 -10 42 -10
86 0 64 -3 79 -15 79 -12 0 -15 -15 -15 -76z"/>
<path d="M3310 7215 l0 -95 38 0 c25 0 45 7 55 18 40 44 3 131 -49 118 -21 -6
-24 -3 -24 24 0 16 -4 30 -10 30 -6 0 -10 -38 -10 -95z m78 -24 c4 -35 -9 -51
-40 -51 -15 0 -18 9 -18 46 0 44 1 45 28 42 23 -3 28 -8 30 -37z"/>
<path d="M5630 7280 c0 -27 -3 -30 -24 -24 -34 8 -66 -26 -66 -69 0 -46 27
-69 77 -65 l38 3 3 93 c2 77 0 92 -13 92 -10 0 -15 -10 -15 -30z m0 -95 c0
-37 -3 -45 -18 -45 -26 0 -42 20 -42 50 0 33 7 40 37 40 21 0 23 -5 23 -45z"/>
<path d="M6270 7280 c0 -27 -3 -30 -24 -24 -34 8 -66 -26 -66 -69 0 -46 27
-69 77 -65 l38 3 3 93 c2 77 0 92 -13 92 -10 0 -15 -10 -15 -30z m0 -95 c0
-37 -3 -45 -18 -45 -26 0 -42 20 -42 50 0 33 7 40 37 40 21 0 23 -5 23 -45z"/>
<path d="M3010 7216 c0 -52 4 -77 14 -86 17 -13 58 -10 54 5 -1 6 -9 9 -17 7
-19 -5 -31 16 -31 56 0 28 3 32 25 32 14 0 25 5 25 10 0 6 -11 10 -25 10 -18
0 -25 5 -25 20 0 11 -4 20 -10 20 -6 0 -10 -31 -10 -74z"/>
<path d="M127 7253 c-15 -14 -6 -23 23 -23 20 0 30 -5 30 -15 0 -10 -10 -15
-30 -15 -36 0 -56 -30 -40 -60 8 -15 21 -20 55 -20 l45 0 0 53 c0 40 -5 58
-18 70 -19 17 -53 22 -65 10z m53 -93 c0 -13 -7 -20 -19 -20 -22 0 -35 15 -26
30 12 19 45 11 45 -10z"/>
<path d="M454 7235 c-46 -46 -17 -115 48 -115 16 0 28 5 28 13 0 7 -11 13 -26
12 -33 0 -49 24 -40 58 5 22 12 27 37 27 20 0 29 4 27 13 -8 23 -47 19 -74 -8z"/>
<path d="M778 7249 c-29 -17 -22 -55 12 -69 37 -15 34 -35 -6 -35 -41 -1 -36
-19 7 -23 67 -6 78 46 16 76 -36 17 -34 32 4 32 20 0 29 4 27 13 -6 16 -38 20
-60 6z"/>
<path d="M1103 7254 c-20 -9 -18 -134 2 -134 11 0 15 13 15 54 0 49 2 55 23
58 12 2 21 8 20 13 -3 11 -41 17 -60 9z"/>
<path d="M1407 7253 c-15 -14 -6 -23 23 -23 20 0 30 -5 30 -15 0 -10 -10 -15
-30 -15 -36 0 -56 -30 -40 -60 8 -15 21 -20 55 -20 l45 0 0 53 c0 40 -5 58
-18 70 -19 17 -53 22 -65 10z m53 -93 c0 -13 -7 -20 -19 -20 -22 0 -35 15 -26
30 12 19 45 11 45 -10z"/>
<path d="M1743 7254 c-20 -9 -18 -134 2 -134 11 0 15 13 15 54 0 49 2 55 23
58 12 2 21 8 20 13 -3 11 -41 17 -60 9z"/>
<path d="M2045 7235 c-49 -48 -19 -115 51 -115 24 0 34 4 31 13 -2 6 -14 11
-26 9 -22 -3 -51 13 -51 29 0 5 20 9 45 9 38 0 45 3 45 20 0 24 -34 60 -55 60
-9 0 -27 -11 -40 -25z m63 -22 c2 -9 -7 -13 -27 -13 -30 0 -39 9 -24 24 11 10
46 3 51 -11z"/>
<path d="M4287 7253 c-15 -14 -6 -23 23 -23 20 0 30 -5 30 -15 0 -10 -10 -15
-30 -15 -36 0 -56 -30 -40 -60 8 -15 21 -20 55 -20 l45 0 0 53 c0 40 -5 58
-18 70 -19 17 -53 22 -65 10z m53 -93 c0 -21 -33 -29 -45 -10 -9 15 4 30 26
30 12 0 19 -7 19 -20z"/>
<path d="M4623 7254 c-20 -9 -18 -134 2 -134 11 0 15 13 15 54 0 49 2 55 23
58 12 2 21 8 20 13 -3 11 -41 17 -60 9z"/>
<path d="M5243 7253 c-16 -6 -18 -133 -3 -133 6 0 10 25 10 56 0 54 0 55 28
52 25 -3 27 -6 30 -56 4 -73 28 -65 25 8 -1 69 -35 96 -90 73z"/>
<path d="M5885 7235 c-49 -48 -19 -115 51 -115 24 0 34 4 31 13 -2 6 -14 11
-26 9 -22 -3 -51 13 -51 29 0 5 20 9 45 9 38 0 45 3 45 20 0 24 -34 60 -55 60
-9 0 -27 -11 -40 -25z m63 -22 c2 -9 -7 -13 -27 -13 -30 0 -39 9 -24 24 11 10
46 3 51 -11z"/>
<path d="M6527 7253 c-15 -14 -6 -23 23 -23 20 0 30 -5 30 -15 0 -10 -10 -15
-30 -15 -36 0 -56 -30 -40 -60 8 -15 21 -20 55 -20 l45 0 0 53 c0 40 -5 58
-18 70 -19 17 -53 22 -65 10z m53 -93 c0 -21 -33 -29 -45 -10 -9 15 4 30 26
30 12 0 19 -7 19 -20z"/>
<path d="M6803 7253 c-20 -7 -18 -133 2 -133 12 0 15 13 15 56 0 52 1 55 23
52 19 -3 22 -10 25 -55 4 -70 22 -68 22 2 0 52 1 55 25 55 24 0 25 -3 25 -55
0 -42 3 -55 15 -55 11 0 15 12 15 53 0 74 -7 81 -87 83 -37 1 -74 -1 -80 -3z"/>
<path d="M7163 7253 c-16 -6 -18 -133 -3 -133 6 0 10 25 10 56 0 54 0 55 28
52 25 -3 27 -6 30 -56 4 -73 28 -65 25 8 -1 69 -35 96 -90 73z"/>
<path d="M7503 7254 c-20 -9 -18 -134 2 -134 11 0 15 13 15 54 0 49 2 55 23
58 12 2 21 8 20 13 -3 11 -41 17 -60 9z"/>
<path d="M7807 7253 c-15 -14 -6 -23 23 -23 20 0 30 -5 30 -15 0 -10 -10 -15
-30 -15 -36 0 -56 -30 -40 -60 8 -15 21 -20 55 -20 l45 0 0 53 c0 40 -5 58
-18 70 -19 17 -53 22 -65 10z m53 -93 c0 -21 -33 -29 -45 -10 -9 15 4 30 26
30 12 0 19 -7 19 -20z"/>
<path d="M2670 7197 c0 -63 11 -77 62 -77 l38 0 0 65 c0 37 -4 65 -10 65 -5 0
-10 -25 -10 -55 0 -46 -3 -55 -18 -55 -29 0 -42 21 -42 67 0 24 -4 43 -10 43
-5 0 -10 -24 -10 -53z"/>
<path d="M4830 7040 c0 -6 50 -10 130 -10 80 0 130 4 130 10 0 6 -50 10 -130
10 -80 0 -130 -4 -130 -10z"/>
<path d="M3220 6880 l0 -140 140 0 140 0 0 140 0 140 -140 0 -140 0 0 -140z"/>
<path d="M3540 6880 l0 -140 140 0 140 0 0 140 0 140 -140 0 -140 0 0 -140z"/>
<path d="M5110 6880 c0 -80 4 -130 10 -130 6 0 10 50 10 130 0 80 -4 130 -10
130 -6 0 -10 -50 -10 -130z"/>
<path d="M5430 6880 c0 -80 4 -130 10 -130 6 0 10 50 10 130 0 80 -4 130 -10
130 -6 0 -10 -50 -10 -130z"/>
<path d="M5750 6880 c0 -80 4 -130 10 -130 6 0 10 50 10 130 0 80 -4 130 -10
130 -6 0 -10 -50 -10 -130z"/>
<path d="M6070 6880 c0 -80 4 -130 10 -130 6 0 10 50 10 130 0 80 -4 130 -10
130 -6 0 -10 -50 -10 -130z"/>
<path d="M4840 6880 l0 -120 120 0 120 0 0 120 0 120 -120 0 -120 0 0 -120z
m106 83 c13 -17 15 -17 27 -1 10 13 21 15 43 9 24 -6 31 -15 38 -49 5 -25 5
-60 0 -84 -8 -40 -12 -44 -52 -52 -25 -5 -59 -5 -84 0 -40 8 -44 12 -52 52 -5
24 -5 59 0 84 9 41 13 44 63 57 2 1 10 -7 17 -16z"/>
<path d="M4940 6865 c0 -58 2 -65 20 -65 18 0 20 7 20 65 0 58 -2 65 -20 65
-18 0 -20 -7 -20 -65z"/>
<path d="M5160 6880 l0 -120 120 0 120 0 0 120 0 120 -120 0 -120 0 0 -120z
m199 86 c28 -17 22 -164 -7 -174 -9 -3 -12 15 -12 66 0 74 -5 82 -54 82 -40 0
-66 -27 -66 -70 0 -31 5 -43 25 -56 14 -9 32 -13 41 -10 10 4 14 2 11 -6 -4
-12 -65 -14 -94 -4 -17 7 -27 88 -16 133 6 27 15 39 33 45 27 8 123 3 139 -6z
m-49 -91 c0 -41 -23 -56 -47 -32 -24 24 -9 67 22 67 22 0 25 -4 25 -35z"/>
<path d="M5480 6880 l0 -120 120 0 120 0 0 120 0 120 -120 0 -120 0 0 -120z
m199 86 c15 -10 24 -91 14 -133 -8 -34 -13 -39 -51 -47 -25 -5 -60 -5 -84 0
-40 8 -44 12 -52 52 -13 62 2 124 34 134 27 8 123 3 139 -6z"/>
<path d="M5568 6898 c2 -40 5 -79 7 -85 6 -19 75 -17 75 2 0 9 -8 14 -22 12
-20 -2 -23 3 -26 41 -3 37 -1 42 17 42 12 0 21 5 21 10 0 6 -9 10 -20 10 -13
0 -20 7 -20 20 0 13 -7 20 -18 20 -16 0 -17 -8 -14 -72z"/>
<path d="M5800 6880 l0 -120 120 0 120 0 0 120 0 120 -120 0 -120 0 0 -120z
m100 22 c0 -77 9 -102 37 -102 7 0 13 7 13 15 0 8 -4 15 -10 15 -6 0 -10 32
-10 76 l0 76 33 -7 c17 -4 35 -9 39 -11 13 -8 20 -93 11 -131 -8 -34 -13 -39
-51 -47 -25 -5 -60 -5 -84 0 -40 8 -44 12 -52 52 -5 24 -5 59 0 84 9 40 21 51
67 57 4 1 7 -34 7 -77z"/>
<path d="M6120 6880 l0 -120 120 0 120 0 0 120 0 120 -120 0 -120 0 0 -120z
m138 9 c-12 -44 -24 -41 -34 9 -6 29 -4 32 19 32 24 0 25 -1 15 -41z m-48 -51
c0 -5 -4 -8 -10 -8 -5 0 -10 10 -10 23 0 18 2 19 10 7 5 -8 10 -18 10 -22z
m80 12 c0 -11 -4 -20 -9 -20 -5 0 -7 9 -4 20 3 11 7 20 9 20 2 0 4 -9 4 -20z"/>
<path d="M3950 6895 c0 -57 4 -95 10 -95 6 0 10 25 10 56 0 54 0 55 28 52 25
-3 27 -6 30 -56 4 -73 28 -65 25 8 -1 58 -18 80 -60 80 -18 0 -23 6 -23 25 0
14 -4 25 -10 25 -6 0 -10 -38 -10 -95z"/>
<path d="M4290 6896 c0 -52 4 -77 14 -86 17 -13 58 -10 54 5 -1 6 -9 9 -17 7
-19 -5 -31 16 -31 56 0 28 3 32 25 32 14 0 25 5 25 10 0 6 -11 10 -25 10 -18
0 -25 5 -25 20 0 11 -4 20 -10 20 -6 0 -10 -31 -10 -74z"/>
<path d="M143 6934 c-20 -9 -18 -134 2 -134 11 0 15 13 15 54 0 49 2 55 23 58
12 2 21 8 20 13 -3 11 -41 17 -60 9z"/>
<path d="M454 6915 c-46 -46 -17 -115 48 -115 16 0 28 5 28 13 0 7 -11 13 -26
12 -33 0 -49 24 -40 58 5 22 12 27 37 27 20 0 29 4 27 13 -8 23 -47 19 -74 -8z"/>
<path d="M783 6934 c-20 -9 -18 -134 2 -134 11 0 15 13 15 54 0 49 2 55 23 58
12 2 21 8 20 13 -3 11 -41 17 -60 9z"/>
<path d="M1103 6934 c-20 -9 -18 -134 2 -134 11 0 15 13 15 54 0 49 2 55 23
58 12 2 21 8 20 13 -3 11 -41 17 -60 9z"/>
<path d="M1405 6915 c-49 -48 -19 -115 51 -115 24 0 34 4 31 13 -2 6 -14 11
-26 9 -22 -3 -51 13 -51 29 0 5 20 9 45 9 38 0 45 3 45 20 0 24 -34 60 -55 60
-9 0 -27 -11 -40 -25z m63 -22 c2 -9 -7 -13 -27 -13 -30 0 -39 9 -24 24 11 10
46 3 51 -11z"/>
<path d="M2040 6920 c-26 -26 -26 -81 -2 -103 24 -22 65 -21 85 1 37 40 7 122
-43 122 -11 0 -29 -9 -40 -20z m68 -51 c2 -26 -2 -38 -12 -42 -28 -11 -46 4
-46 37 0 39 7 48 35 44 15 -2 21 -12 23 -39z"/>
<path d="M2323 6933 c-20 -7 -18 -133 2 -133 12 0 15 13 15 56 0 52 1 55 23
52 19 -3 22 -10 25 -55 4 -70 22 -68 22 2 0 52 1 55 25 55 24 0 25 -3 25 -55
0 -42 3 -55 15 -55 11 0 15 12 15 53 0 74 -7 81 -87 83 -37 1 -74 -1 -80 -3z"/>
<path d="M2687 6933 c-15 -14 -6 -23 23 -23 20 0 30 -5 30 -15 0 -10 -10 -15
-30 -15 -36 0 -56 -30 -40 -60 8 -15 21 -20 55 -20 l45 0 0 53 c0 40 -5 58
-18 70 -19 17 -53 22 -65 10z m53 -93 c0 -13 -7 -20 -19 -20 -22 0 -35 15 -26
30 12 19 45 11 45 -10z"/>
<path d="M3000 6920 c-26 -26 -26 -81 -2 -103 24 -22 65 -21 85 1 37 40 7 122
-43 122 -11 0 -29 -9 -40 -20z m68 -51 c2 -26 -2 -38 -12 -42 -28 -11 -46 4
-46 37 0 39 7 48 35 44 15 -2 21 -12 23 -39z"/>
<path d="M4600 6920 c-26 -26 -26 -81 -2 -103 24 -22 65 -21 85 1 37 40 7 122
-43 122 -11 0 -29 -9 -40 -20z m68 -51 c2 -26 -2 -38 -12 -42 -28 -11 -46 4
-46 37 0 39 7 48 35 44 15 -2 21 -12 23 -39z"/>
<path d="M6525 6915 c-49 -48 -19 -115 51 -115 24 0 34 4 31 13 -2 6 -14 11
-26 9 -22 -3 -51 13 -51 29 0 5 20 9 45 9 38 0 45 3 45 20 0 24 -34 60 -55 60
-9 0 -27 -11 -40 -25z m63 -22 c2 -9 -7 -13 -27 -13 -30 0 -39 9 -24 24 11 10
46 3 51 -11z"/>
<path d="M6847 6933 c-15 -14 -6 -23 23 -23 20 0 30 -5 30 -15 0 -10 -10 -15
-30 -15 -36 0 -56 -30 -40 -60 8 -15 21 -20 55 -20 l45 0 0 53 c0 40 -5 58
-18 70 -19 17 -53 22 -65 10z m53 -93 c0 -13 -7 -20 -19 -20 -22 0 -35 15 -26
30 12 19 45 11 45 -10z"/>
<path d="M7163 6933 c-16 -6 -18 -133 -3 -133 6 0 10 25 10 56 0 54 0 55 28
52 25 -3 27 -6 30 -56 4 -73 28 -65 25 8 -1 69 -35 96 -90 73z"/>
<path d="M7483 6934 c-16 -7 -18 -174 -3 -174 6 0 10 9 10 20 0 15 7 20 28 20
16 0 36 8 45 18 20 22 22 71 5 95 -14 18 -64 30 -85 21z m65 -66 c3 -29 -1
-38 -17 -43 -31 -10 -41 2 -41 46 0 38 2 40 28 37 23 -3 27 -8 30 -40z"/>
<path d="M7800 6920 c-26 -26 -26 -81 -2 -103 24 -22 65 -21 85 1 37 40 7 122
-43 122 -11 0 -29 -9 -40 -20z m68 -51 c2 -26 -2 -38 -12 -42 -28 -11 -46 4
-46 37 0 39 7 48 35 44 15 -2 21 -12 23 -39z"/>
<path d="M1706 6908 c17 -54 44 -108 54 -108 10 0 40 58 55 108 4 16 2 22 -8
22 -9 0 -20 -19 -27 -46 -14 -50 -22 -48 -40 9 -6 21 -18 37 -26 37 -11 0 -13
-6 -8 -22z"/>
<path d="M5150 6720 c0 -6 50 -10 130 -10 80 0 130 4 130 10 0 6 -50 10 -130
10 -80 0 -130 -4 -130 -10z"/>
<path d="M5470 6720 c0 -6 50 -10 130 -10 80 0 130 4 130 10 0 6 -50 10 -130
10 -80 0 -130 -4 -130 -10z"/>
<path d="M6110 6720 c0 -6 50 -10 130 -10 80 0 130 4 130 10 0 6 -50 10 -130
10 -80 0 -130 -4 -130 -10z"/>
<path d="M3220 6560 l0 -140 140 0 140 0 0 140 0 140 -140 0 -140 0 0 -140z"/>
<path d="M3540 6560 l0 -140 140 0 140 0 0 140 0 140 -140 0 -140 0 0 -140z"/>
<path d="M3860 6560 l0 -140 140 0 140 0 0 140 0 140 -140 0 -140 0 0 -140z"/>
<path d="M4180 6560 l0 -140 140 0 140 0 0 140 0 140 -140 0 -140 0 0 -140z"/>
<path d="M5430 6560 c0 -80 4 -130 10 -130 6 0 10 50 10 130 0 80 -4 130 -10
130 -6 0 -10 -50 -10 -130z"/>
<path d="M5160 6560 l0 -120 120 0 120 0 0 120 0 120 -120 0 -120 0 0 -120z
m199 86 c15 -10 24 -91 14 -133 -8 -34 -13 -39 -51 -47 -25 -5 -60 -5 -84 0
-40 8 -44 12 -52 52 -13 62 2 124 34 134 27 8 123 3 139 -6z"/>
<path d="M5240 6600 c-24 -24 -26 -67 -4 -98 19 -27 94 -33 94 -7 0 11 -7 14
-24 9 -15 -3 -29 1 -41 13 -18 17 -17 18 28 21 52 3 60 19 31 60 -19 28 -57
29 -84 2z m68 -27 c2 -9 -7 -13 -28 -13 -28 0 -31 2 -20 15 15 18 41 16 48 -2z"/>
<path d="M5480 6560 l0 -120 120 0 120 0 0 120 0 120 -120 0 -120 0 0 -120z
m199 86 c15 -10 24 -91 14 -133 -8 -34 -13 -39 -51 -47 -25 -5 -60 -5 -84 0
-40 8 -44 12 -52 52 -13 62 2 124 34 134 27 8 123 3 139 -6z"/>
<path d="M5557 6613 c-4 -3 -7 -35 -7 -70 0 -49 3 -63 15 -63 12 0 15 13 15
55 0 47 3 55 19 55 23 0 31 -19 31 -71 0 -28 4 -39 15 -39 21 0 20 88 -1 118
-15 21 -71 31 -87 15z"/>
<path d="M6120 6560 l0 -120 120 0 120 0 0 120 0 120 -120 0 -120 0 0 -120z
m144 15 c4 -11 -1 -15 -19 -15 -24 0 -32 10 -18 23 11 12 31 8 37 -8z m26 -50
c0 -10 -10 -15 -34 -15 -21 0 -36 6 -40 15 -4 12 3 15 34 15 29 0 40 -4 40
-15z"/>
<path d="M510 6640 c0 -27 -3 -30 -24 -24 -34 8 -66 -26 -66 -69 0 -46 27 -69
77 -65 l38 3 3 93 c2 77 0 92 -13 92 -10 0 -15 -10 -15 -30z m0 -95 c0 -37 -3
-45 -18 -45 -26 0 -42 20 -42 50 0 33 7 40 37 40 21 0 23 -5 23 -45z"/>
<path d="M1104 6659 c-10 -17 13 -36 27 -22 12 12 4 33 -11 33 -5 0 -12 -5
-16 -11z"/>
<path d="M1390 6575 c0 -57 4 -95 10 -95 6 0 10 25 10 56 0 54 0 55 28 52 25
-3 27 -6 30 -56 4 -73 28 -65 25 8 -1 58 -18 80 -60 80 -18 0 -23 6 -23 25 0
14 -4 25 -10 25 -6 0 -10 -38 -10 -95z"/>
<path d="M7184 6659 c-10 -17 13 -36 27 -22 12 12 4 33 -11 33 -5 0 -12 -5
-16 -11z"/>
<path d="M6530 6576 c0 -52 4 -77 14 -86 17 -13 58 -10 54 5 -1 6 -9 9 -17 7
-19 -5 -31 16 -31 56 0 28 3 32 25 32 14 0 25 5 25 10 0 6 -11 10 -25 10 -18
0 -25 5 -25 20 0 11 -4 20 -10 20 -6 0 -10 -31 -10 -74z"/>
<path d="M125 6595 c-49 -48 -19 -115 51 -115 24 0 34 4 31 13 -2 6 -14 11
-26 9 -22 -3 -51 13 -51 29 0 5 20 9 45 9 38 0 45 3 45 20 0 24 -34 60 -55 60
-9 0 -27 -11 -40 -25z m63 -22 c2 -9 -7 -13 -27 -13 -30 0 -39 9 -24 24 11 10
46 3 51 -11z"/>
<path d="M774 6595 c-46 -46 -17 -115 48 -115 16 0 28 5 28 13 0 7 -11 13 -26
12 -33 0 -49 24 -40 58 5 22 12 27 37 27 20 0 29 4 27 13 -8 23 -47 19 -74 -8z"/>
<path d="M1725 6595 c-49 -48 -19 -115 51 -115 24 0 34 4 31 13 -2 6 -14 11
-26 9 -22 -3 -51 13 -51 29 0 5 20 9 45 9 38 0 45 3 45 20 0 24 -34 60 -55 60
-9 0 -27 -11 -40 -25z m63 -22 c2 -9 -7 -13 -27 -13 -30 0 -39 9 -24 24 11 10
46 3 51 -11z"/>
<path d="M2043 6614 c-16 -7 -18 -174 -3 -174 6 0 10 9 10 20 0 15 7 20 28 20
16 0 36 8 45 18 20 22 22 71 5 95 -14 18 -64 30 -85 21z m65 -66 c3 -29 -1
-38 -17 -43 -31 -10 -41 2 -41 46 0 38 2 40 28 37 23 -3 27 -8 30 -40z"/>
<path d="M2323 6613 c-20 -7 -18 -133 2 -133 12 0 15 13 15 56 0 52 1 55 23
52 19 -3 22 -10 25 -55 4 -70 22 -68 22 2 0 52 1 55 25 55 24 0 25 -3 25 -55
0 -42 3 -55 15 -55 11 0 15 12 15 53 0 74 -7 81 -87 83 -37 1 -74 -1 -80 -3z"/>
<path d="M2683 6613 c-16 -6 -18 -133 -3 -133 6 0 10 25 10 56 0 54 0 55 28
52 25 -3 27 -6 30 -56 4 -73 28 -65 25 8 -1 69 -35 96 -90 73z"/>
<path d="M4613 6610 c-27 -11 -39 -53 -27 -89 8 -21 17 -27 46 -29 49 -4 41
-32 -8 -32 -19 0 -34 -4 -34 -10 0 -14 74 -12 88 2 7 7 12 41 12 84 0 56 -3
73 -16 78 -20 8 -34 7 -61 -4z m55 -57 c-3 -33 -6 -38 -28 -38 -19 0 -26 6
-28 23 -5 36 5 52 33 52 24 0 26 -3 23 -37z"/>
<path d="M4923 6613 c-16 -6 -18 -133 -3 -133 6 0 10 25 10 56 0 54 0 55 28
52 25 -3 27 -6 30 -56 4 -73 28 -65 25 8 -1 69 -35 96 -90 73z"/>
<path d="M5883 6613 c-16 -6 -18 -133 -3 -133 6 0 10 25 10 56 0 54 0 55 28
52 25 -3 27 -6 30 -56 4 -73 28 -65 25 8 -1 69 -35 96 -90 73z"/>
<path d="M6863 6614 c-20 -9 -18 -134 2 -134 11 0 15 13 15 54 0 49 2 55 23
58 12 2 21 8 20 13 -3 11 -41 17 -60 9z"/>
<path d="M7503 6614 c-20 -9 -18 -134 2 -134 11 0 15 13 15 54 0 49 2 55 23
58 12 2 21 8 20 13 -3 11 -41 17 -60 9z"/>
<path d="M7823 6614 c-20 -9 -18 -134 2 -134 11 0 15 13 15 54 0 49 2 55 23
58 12 2 21 8 20 13 -3 11 -41 17 -60 9z"/>
<path d="M1110 6545 c0 -37 4 -65 10 -65 6 0 10 28 10 65 0 37 -4 65 -10 65
-6 0 -10 -28 -10 -65z"/>
<path d="M2990 6557 c0 -63 11 -77 62 -77 l38 0 0 65 c0 37 -4 65 -10 65 -5 0
-10 -25 -10 -55 0 -46 -3 -55 -18 -55 -29 0 -42 21 -42 67 0 24 -4 43 -10 43
-5 0 -10 -24 -10 -53z"/>
<path d="M7190 6545 c0 -37 4 -65 10 -65 6 0 10 28 10 65 0 37 -4 65 -10 65
-6 0 -10 -28 -10 -65z"/>
<path d="M5470 6400 c0 -6 50 -10 130 -10 80 0 130 4 130 10 0 6 -50 10 -130
10 -80 0 -130 -4 -130 -10z"/>
<path d="M6110 6400 c0 -6 50 -10 130 -10 80 0 130 4 130 10 0 6 -50 10 -130
10 -80 0 -130 -4 -130 -10z"/>
<path d="M3860 6240 l0 -140 140 0 140 0 0 140 0 140 -140 0 -140 0 0 -140z"/>
<path d="M4180 6240 l0 -140 140 0 140 0 0 140 0 140 -140 0 -140 0 0 -140z"/>
<path d="M5750 6240 c0 -80 4 -130 10 -130 6 0 10 50 10 130 0 80 -4 130 -10
130 -6 0 -10 -50 -10 -130z"/>
<path d="M6070 6240 c0 -80 4 -130 10 -130 6 0 10 50 10 130 0 80 -4 130 -10
130 -6 0 -10 -50 -10 -130z"/>
<path d="M5480 6240 l0 -120 120 0 120 0 0 120 0 120 -120 0 -120 0 0 -120z
m136 19 c3 -5 -1 -9 -8 -9 -7 0 -23 -3 -35 -6 -18 -5 -23 -2 -23 13 0 16 5 19
30 15 17 -2 33 -8 36 -13z m4 -54 c0 -8 -9 -15 -20 -15 -20 0 -26 11 -13 23
12 13 33 7 33 -8z"/>
<path d="M5800 6240 l0 -120 120 0 120 0 0 120 0 120 -120 0 -120 0 0 -120z
m90 0 c0 -27 -4 -50 -10 -50 -5 0 -10 23 -10 50 0 28 5 50 10 50 6 0 10 -22
10 -50z m80 -10 c0 -36 -2 -40 -25 -40 -22 0 -25 4 -25 40 0 36 3 40 25 40 23
0 25 -4 25 -40z"/>
<path d="M6120 6240 l0 -120 120 0 120 0 0 120 0 120 -120 0 -120 0 0 -120z
m136 19 c3 -5 -1 -9 -8 -9 -7 0 -23 -3 -35 -6 -18 -5 -23 -2 -23 13 0 16 5 19
30 15 17 -2 33 -8 36 -13z m4 -54 c0 -8 -9 -15 -20 -15 -20 0 -26 11 -13 23
12 13 33 7 33 -8z"/>
<path d="M2060 6274 c0 -79 11 -114 35 -114 17 0 20 16 5 25 -5 3 -10 42 -10
86 0 64 -3 79 -15 79 -12 0 -15 -15 -15 -76z"/>
<path d="M3310 6255 c0 -57 4 -95 10 -95 6 0 10 25 10 56 0 54 0 55 28 52 25
-3 27 -6 30 -56 4 -73 28 -65 25 8 -1 58 -18 80 -60 80 -18 0 -23 6 -23 25 0
14 -4 25 -10 25 -6 0 -10 -38 -10 -95z"/>
<path d="M3664 6339 c-10 -17 13 -36 27 -22 12 12 4 33 -11 33 -5 0 -12 -5
-16 -11z"/>
<path d="M4940 6274 c0 -79 11 -114 35 -114 17 0 20 16 5 25 -5 3 -10 42 -10
86 0 64 -3 79 -15 79 -12 0 -15 -15 -15 -76z"/>
<path d="M6864 6339 c-10 -17 13 -36 27 -22 12 12 4 33 -11 33 -5 0 -12 -5
-16 -11z"/>
<path d="M133 6290 c-27 -11 -39 -53 -27 -89 8 -21 17 -27 46 -29 49 -4 41
-32 -8 -32 -19 0 -34 -4 -34 -10 0 -14 74 -12 88 2 7 7 12 41 12 84 0 56 -3
73 -16 78 -20 8 -34 7 -61 -4z m55 -57 c-3 -33 -6 -38 -28 -38 -19 0 -26 6
-28 23 -5 36 5 52 33 52 24 0 26 -3 23 -37z"/>
<path d="M443 6293 c-16 -6 -18 -133 -3 -133 6 0 10 25 10 56 0 54 0 55 28 52
25 -3 27 -6 30 -56 4 -73 28 -65 25 8 -1 69 -35 96 -90 73z"/>
<path d="M760 6280 c-26 -26 -26 -81 -2 -103 24 -22 65 -21 85 1 37 40 7 122
-43 122 -11 0 -29 -9 -40 -20z m68 -51 c2 -26 -2 -38 -12 -42 -28 -11 -46 4
-46 37 0 39 7 48 35 44 15 -2 21 -12 23 -39z"/>
<path d="M1080 6280 c-26 -26 -26 -81 -2 -103 24 -22 65 -21 85 1 37 40 7 122
-43 122 -11 0 -29 -9 -40 -20z m68 -51 c2 -26 -2 -38 -12 -42 -28 -11 -46 4
-46 37 0 39 7 48 35 44 15 -2 21 -12 23 -39z"/>
<path d="M1414 6275 c-46 -46 -17 -115 48 -115 16 0 28 5 28 13 0 7 -11 13
-26 12 -33 0 -49 24 -40 58 5 22 12 27 37 27 20 0 29 4 27 13 -8 23 -47 19
-74 -8z"/>
<path d="M1727 6293 c-15 -14 -6 -23 23 -23 20 0 30 -5 30 -15 0 -10 -10 -15
-30 -15 -36 0 -56 -30 -40 -60 8 -15 21 -20 55 -20 l45 0 0 53 c0 40 -5 58
-18 70 -19 17 -53 22 -65 10z m53 -93 c0 -21 -33 -29 -45 -10 -9 15 4 30 26
30 12 0 19 -7 19 -20z"/>
<path d="M2367 6293 c-15 -14 -6 -23 23 -23 20 0 30 -5 30 -15 0 -10 -10 -15
-30 -15 -36 0 -56 -30 -40 -60 8 -15 21 -20 55 -20 l45 0 0 53 c0 40 -5 58
-18 70 -19 17 -53 22 -65 10z m53 -93 c0 -21 -33 -29 -45 -10 -9 15 4 30 26
30 12 0 19 -7 19 -20z"/>
<path d="M2683 6294 c-16 -7 -18 -174 -3 -174 6 0 10 9 10 20 0 15 7 20 28 20
16 0 36 8 45 18 20 22 22 71 5 95 -14 18 -64 30 -85 21z m65 -66 c3 -29 -1
-38 -17 -43 -31 -10 -41 2 -41 46 0 38 2 40 28 37 23 -3 27 -8 30 -40z"/>
<path d="M3000 6280 c-26 -26 -26 -81 -2 -103 24 -22 65 -21 85 1 37 40 7 122
-43 122 -11 0 -29 -9 -40 -20z m68 -51 c2 -26 -2 -38 -12 -42 -28 -11 -46 4
-46 37 0 39 7 48 35 44 15 -2 21 -12 23 -39z"/>
<path d="M4603 6293 c-9 -3 -13 -27 -13 -70 0 -47 3 -64 13 -61 7 3 13 26 15
56 3 43 6 52 21 52 23 0 31 -19 31 -71 0 -29 4 -39 16 -39 24 0 15 108 -11
126 -19 14 -49 17 -72 7z"/>
<path d="M5240 6280 c-26 -26 -26 -81 -2 -103 24 -22 65 -21 85 1 37 40 7 122
-43 122 -11 0 -29 -9 -40 -20z m68 -51 c2 -26 -2 -38 -12 -42 -28 -11 -46 4
-46 37 0 39 7 48 35 44 15 -2 21 -12 23 -39z"/>
<path d="M6520 6280 c-26 -26 -26 -81 -2 -103 24 -22 65 -21 85 1 37 40 7 122
-43 122 -11 0 -29 -9 -40 -20z m68 -51 c2 -26 -2 -38 -12 -42 -28 -11 -46 4
-46 37 0 39 7 48 35 44 15 -2 21 -12 23 -39z"/>
<path d="M7178 6289 c-29 -17 -22 -55 12 -69 37 -15 34 -35 -6 -35 -41 -1 -36
-19 7 -23 67 -6 78 46 16 76 -36 17 -34 32 4 32 20 0 29 4 27 13 -6 16 -38 20
-60 6z"/>
<path d="M7485 6275 c-49 -48 -19 -115 51 -115 24 0 34 4 31 13 -2 6 -14 11
-26 9 -22 -3 -51 13 -51 29 0 5 20 9 45 9 38 0 45 3 45 20 0 24 -34 60 -55 60
-9 0 -27 -11 -40 -25z m63 -22 c2 -9 -7 -13 -27 -13 -30 0 -39 9 -24 24 11 10
46 3 51 -11z"/>
<path d="M3670 6225 c0 -37 4 -65 10 -65 6 0 10 28 10 65 0 37 -4 65 -10 65
-6 0 -10 -28 -10 -65z"/>
<path d="M6870 6225 c0 -37 4 -65 10 -65 6 0 10 28 10 65 0 37 -4 65 -10 65
-6 0 -10 -28 -10 -65z"/>
<path d="M7786 6268 c3 -13 15 -40 26 -61 22 -44 18 -67 -12 -67 -11 0 -20 -4
-20 -10 0 -20 50 -10 65 13 12 19 55 131 55 144 0 1 -6 3 -14 3 -7 0 -19 -20
-26 -46 -14 -50 -22 -48 -40 9 -6 21 -18 37 -26 37 -11 0 -13 -6 -8 -22z"/>
<path d="M5470 6080 c0 -6 50 -10 130 -10 80 0 130 4 130 10 0 6 -50 10 -130
10 -80 0 -130 -4 -130 -10z"/>
<path d="M5480 5920 l0 -120 120 0 120 0 0 120 0 120 -120 0 -120 0 0 -120z
m138 9 c-12 -44 -24 -41 -34 9 -6 29 -4 32 19 32 24 0 25 -1 15 -41z m-48 -51
c0 -5 -4 -8 -10 -8 -5 0 -10 10 -10 23 0 18 2 19 10 7 5 -8 10 -18 10 -22z
m80 12 c0 -11 -4 -20 -9 -20 -5 0 -7 9 -4 20 3 11 7 20 9 20 2 0 4 -9 4 -20z"/>
<path d="M430 5935 c0 -57 4 -95 10 -95 6 0 10 25 10 56 0 54 0 55 28 52 25
-3 27 -6 30 -56 4 -73 28 -65 25 8 -1 58 -18 80 -60 80 -18 0 -23 6 -23 25 0
14 -4 25 -10 25 -6 0 -10 -38 -10 -95z"/>
<path d="M3950 5935 l0 -95 38 0 c25 0 45 7 55 18 40 44 3 131 -49 118 -21 -6
-24 -3 -24 24 0 16 -4 30 -10 30 -6 0 -10 -38 -10 -95z m78 -24 c4 -35 -9 -51
-40 -51 -15 0 -18 9 -18 46 0 44 1 45 28 42 23 -3 28 -8 30 -37z"/>
<path d="M4304 6019 c-10 -17 13 -36 27 -22 12 12 4 33 -11 33 -5 0 -12 -5
-16 -11z"/>
<path d="M5900 5954 c0 -79 11 -114 35 -114 17 0 20 16 5 25 -5 3 -10 42 -10
86 0 64 -3 79 -15 79 -12 0 -15 -15 -15 -76z"/>
<path d="M6190 5935 c0 -57 4 -95 10 -95 6 0 10 25 10 56 0 54 0 55 28 52 25
-3 27 -6 30 -56 4 -73 28 -65 25 8 -1 58 -18 80 -60 80 -18 0 -23 6 -23 25 0
14 -4 25 -10 25 -6 0 -10 -38 -10 -95z"/>
<path d="M7184 6019 c-10 -17 13 -36 27 -22 12 12 4 33 -11 33 -5 0 -12 -5
-16 -11z"/>
<path d="M1410 5936 c0 -52 4 -77 14 -86 17 -13 58 -10 54 5 -1 6 -9 9 -17 7
-19 -5 -31 16 -31 56 0 28 3 32 25 32 14 0 25 5 25 10 0 6 -11 10 -25 10 -18
0 -25 5 -25 20 0 11 -4 20 -10 20 -6 0 -10 -31 -10 -74z"/>
<path d="M120 5960 c-26 -26 -26 -81 -2 -103 24 -22 65 -21 85 1 37 40 7 122
-43 122 -11 0 -29 -9 -40 -20z m68 -51 c2 -26 -2 -38 -12 -42 -28 -11 -46 4
-46 37 0 39 7 48 35 44 15 -2 21 -12 23 -39z"/>
<path d="M765 5955 c-49 -48 -19 -115 51 -115 24 0 34 4 31 13 -2 6 -14 11
-26 9 -22 -3 -51 13 -51 29 0 5 20 9 45 9 38 0 45 3 45 20 0 24 -34 60 -55 60
-9 0 -27 -11 -40 -25z m63 -22 c2 -9 -7 -13 -27 -13 -30 0 -39 9 -24 24 11 10
46 3 51 -11z"/>
<path d="M1103 5974 c-20 -9 -18 -134 2 -134 11 0 15 13 15 54 0 49 2 55 23
58 12 2 21 8 20 13 -3 11 -41 17 -60 9z"/>
<path d="M1738 5969 c-29 -17 -22 -55 12 -69 37 -15 34 -35 -6 -35 -41 -1 -36
-19 7 -23 67 -6 78 46 16 76 -36 17 -34 32 4 32 20 0 29 4 27 13 -6 16 -38 20
-60 6z"/>
<path d="M2045 5955 c-49 -48 -19 -115 51 -115 24 0 34 4 31 13 -2 6 -14 11
-26 9 -22 -3 -51 13 -51 29 0 5 20 9 45 9 38 0 45 3 45 20 0 24 -34 60 -55 60
-9 0 -27 -11 -40 -25z m63 -22 c2 -9 -7 -13 -27 -13 -30 0 -39 9 -24 24 11 10
46 3 51 -11z"/>
<path d="M2378 5969 c-29 -17 -22 -55 12 -69 37 -15 34 -35 -6 -35 -41 -1 -36
-19 7 -23 67 -6 78 46 16 76 -36 17 -34 32 4 32 20 0 29 4 27 13 -6 16 -38 20
-60 6z"/>
<path d="M2685 5955 c-49 -48 -19 -115 51 -115 24 0 34 4 31 13 -2 6 -14 11
-26 9 -22 -3 -51 13 -51 29 0 5 20 9 45 9 38 0 45 3 45 20 0 24 -34 60 -55 60
-9 0 -27 -11 -40 -25z m63 -22 c2 -9 -7 -13 -27 -13 -30 0 -39 9 -24 24 11 10
46 3 51 -11z"/>
<path d="M3003 5973 c-16 -6 -18 -133 -3 -133 6 0 10 25 10 56 0 54 0 55 28
52 25 -3 27 -6 30 -56 4 -73 28 -65 25 8 -1 69 -35 96 -90 73z"/>
<path d="M3603 5973 c-20 -7 -18 -133 2 -133 12 0 15 13 15 56 0 52 1 55 23
52 19 -3 22 -10 25 -55 4 -70 22 -68 22 2 0 52 1 55 25 55 24 0 25 -3 25 -55
0 -42 3 -55 15 -55 11 0 15 12 15 53 0 74 -7 81 -87 83 -37 1 -74 -1 -80 -3z"/>
<path d="M4614 5955 c-46 -46 -17 -115 48 -115 16 0 28 5 28 13 0 7 -11 13
-26 12 -33 0 -49 24 -40 58 5 22 12 27 37 27 20 0 29 4 27 13 -8 23 -47 19
-74 -8z"/>
<path d="M4920 5960 c-26 -26 -26 -81 -2 -103 24 -22 65 -21 85 1 37 40 7 122
-43 122 -11 0 -29 -9 -40 -20z m68 -51 c2 -26 -2 -38 -12 -42 -28 -11 -46 4
-46 37 0 39 7 48 35 44 15 -2 21 -12 23 -39z"/>
<path d="M5253 5970 c-27 -11 -39 -53 -27 -89 8 -21 17 -27 46 -29 49 -4 41
-32 -8 -32 -19 0 -34 -4 -34 -10 0 -14 74 -12 88 2 7 7 12 41 12 84 0 56 -3
73 -16 78 -20 8 -34 7 -61 -4z m55 -57 c-3 -33 -6 -38 -28 -38 -19 0 -26 6
-28 23 -5 36 5 52 33 52 24 0 26 -3 23 -37z"/>
<path d="M6538 5969 c-29 -17 -22 -55 12 -69 37 -15 34 -35 -6 -35 -41 -1 -36
-19 7 -23 67 -6 78 46 16 76 -36 17 -34 32 4 32 20 0 29 4 27 13 -6 16 -38 20
-60 6z"/>
<path d="M3310 5917 c0 -63 11 -77 62 -77 l38 0 0 65 c0 37 -4 65 -10 65 -5 0
-10 -25 -10 -55 0 -46 -3 -55 -18 -55 -29 0 -42 21 -42 67 0 24 -4 43 -10 43
-5 0 -10 -24 -10 -53z"/>
<path d="M4310 5905 c0 -37 4 -65 10 -65 6 0 10 28 10 65 0 37 -4 65 -10 65
-6 0 -10 -28 -10 -65z"/>
<path d="M6826 5948 c17 -54 44 -108 54 -108 10 0 40 58 55 108 4 16 2 22 -8
22 -9 0 -20 -19 -27 -46 -14 -50 -22 -48 -40 9 -6 21 -18 37 -26 37 -11 0 -13
-6 -8 -22z"/>
<path d="M7190 5905 c0 -37 4 -65 10 -65 6 0 10 28 10 65 0 37 -4 65 -10 65
-6 0 -10 -28 -10 -65z"/>
<path d="M5470 5760 c0 -6 50 -10 130 -10 80 0 130 4 130 10 0 6 -50 10 -130
10 -80 0 -130 -4 -130 -10z"/>
<path d="M5430 5600 c0 -80 4 -130 10 -130 6 0 10 50 10 130 0 80 -4 130 -10
130 -6 0 -10 -50 -10 -130z"/>
<path d="M5160 5600 l0 -120 120 0 120 0 0 120 0 120 -120 0 -120 0 0 -120z
m170 16 l0 -34 -30 14 c-36 19 -40 38 -5 32 17 -4 25 -1 25 8 0 8 2 14 5 14 3
0 5 -15 5 -34z m-30 -62 c0 -2 -16 -4 -35 -4 -31 0 -35 3 -35 25 l0 24 35 -20
c19 -12 35 -23 35 -25z"/>
<path d="M5480 5600 l0 -120 120 0 120 0 0 120 0 120 -120 0 -120 0 0 -120z
m136 19 c3 -5 -1 -9 -8 -9 -7 0 -23 -3 -35 -6 -18 -5 -23 -2 -23 13 0 16 5 19
30 15 17 -2 33 -8 36 -13z m4 -54 c0 -8 -9 -15 -20 -15 -20 0 -26 11 -13 23
12 13 33 7 33 -8z"/>
<path d="M460 5634 c0 -79 11 -114 35 -114 17 0 20 16 5 25 -5 3 -10 42 -10
86 0 64 -3 79 -15 79 -12 0 -15 -15 -15 -76z"/>
<path d="M2350 5615 c0 -57 4 -95 10 -95 6 0 10 25 10 56 0 54 0 55 28 52 25
-3 27 -6 30 -56 4 -73 28 -65 25 8 -1 58 -18 80 -60 80 -18 0 -23 6 -23 25 0
14 -4 25 -10 25 -6 0 -10 -38 -10 -95z"/>
<path d="M3950 5615 c0 -57 4 -95 10 -95 6 0 10 25 10 56 0 54 0 55 28 52 25
-3 27 -6 30 -56 4 -73 28 -65 25 8 -1 58 -18 80 -60 80 -18 0 -23 6 -23 25 0
14 -4 25 -10 25 -6 0 -10 -38 -10 -95z"/>
<path d="M6190 5615 c0 -57 4 -95 10 -95 6 0 10 25 10 56 0 54 0 55 28 52 25
-3 27 -6 30 -56 4 -73 28 -65 25 8 -1 58 -18 80 -60 80 -18 0 -23 6 -23 25 0
14 -4 25 -10 25 -6 0 -10 -38 -10 -95z"/>
<path d="M6510 5615 c0 -57 4 -95 10 -95 6 0 10 25 10 56 0 54 0 55 28 52 25
-3 27 -6 30 -56 4 -73 28 -65 25 8 -1 58 -18 80 -60 80 -18 0 -23 6 -23 25 0
14 -4 25 -10 25 -6 0 -10 -38 -10 -95z"/>
<path d="M6864 5699 c-10 -17 13 -36 27 -22 12 12 4 33 -11 33 -5 0 -12 -5
-16 -11z"/>
<path d="M3010 5616 c0 -52 4 -77 14 -86 17 -13 58 -10 54 5 -1 6 -9 9 -17 7
-19 -5 -31 16 -31 56 0 28 3 32 25 32 14 0 25 5 25 10 0 6 -11 10 -25 10 -18
0 -25 5 -25 20 0 11 -4 20 -10 20 -6 0 -10 -31 -10 -74z"/>
<path d="M138 5649 c-29 -17 -22 -55 12 -69 37 -15 34 -35 -6 -35 -41 -1 -36
-19 7 -23 67 -6 78 46 16 76 -36 17 -34 32 4 32 20 0 29 4 27 13 -6 16 -38 20
-60 6z"/>
<path d="M763 5654 c-16 -7 -18 -174 -3 -174 6 0 10 9 10 20 0 15 7 20 28 20
16 0 36 8 45 18 20 22 22 71 5 95 -14 18 -64 30 -85 21z m65 -66 c3 -29 -1
-38 -17 -43 -31 -10 -41 2 -41 46 0 38 2 40 28 37 23 -3 27 -8 30 -40z"/>
<path d="M1085 5635 c-49 -48 -19 -115 51 -115 24 0 34 4 31 13 -2 6 -14 11
-26 9 -22 -3 -51 13 -51 29 0 5 20 9 45 9 38 0 45 3 45 20 0 24 -34 60 -55 60
-9 0 -27 -11 -40 -25z m63 -22 c2 -9 -7 -13 -27 -13 -30 0 -39 9 -24 24 11 10
46 3 51 -11z"/>
<path d="M1363 5653 c-20 -7 -18 -133 2 -133 12 0 15 13 15 56 0 52 1 55 23
52 19 -3 22 -10 25 -55 4 -70 22 -68 22 2 0 52 1 55 25 55 24 0 25 -3 25 -55
0 -42 3 -55 15 -55 11 0 15 12 15 53 0 74 -7 81 -87 83 -37 1 -74 -1 -80 -3z"/>
<path d="M1720 5640 c-26 -26 -26 -81 -2 -103 24 -22 65 -21 85 1 37 40 7 122
-43 122 -11 0 -29 -9 -40 -20z m68 -51 c2 -26 -2 -38 -12 -42 -28 -11 -46 4
-46 37 0 39 7 48 35 44 15 -2 21 -12 23 -39z"/>
<path d="M2040 5640 c-26 -26 -26 -81 -2 -103 24 -22 65 -21 85 1 37 40 7 122
-43 122 -11 0 -29 -9 -40 -20z m68 -51 c2 -26 -2 -38 -12 -42 -28 -11 -46 4
-46 37 0 39 7 48 35 44 15 -2 21 -12 23 -39z"/>
<path d="M3283 5653 c-20 -7 -18 -133 2 -133 12 0 15 13 15 56 0 52 1 55 23
52 19 -3 22 -10 25 -55 4 -70 22 -68 22 2 0 52 1 55 25 55 24 0 25 -3 25 -55
0 -42 3 -55 15 -55 11 0 15 12 15 53 0 74 -7 81 -87 83 -37 1 -74 -1 -80 -3z"/>
<path d="M3640 5640 c-26 -26 -26 -81 -2 -103 24 -22 65 -21 85 1 37 40 7 122
-43 122 -11 0 -29 -9 -40 -20z m68 -51 c2 -26 -2 -38 -12 -42 -28 -11 -46 4
-46 37 0 39 7 48 35 44 15 -2 21 -12 23 -39z"/>
<path d="M4293 5650 c-27 -11 -39 -53 -27 -89 8 -21 17 -27 46 -29 49 -4 41
-32 -8 -32 -19 0 -34 -4 -34 -10 0 -14 74 -12 88 2 7 7 12 41 12 84 0 56 -3
73 -16 78 -20 8 -34 7 -61 -4z m55 -57 c-3 -33 -6 -38 -28 -38 -19 0 -26 6
-28 23 -5 36 5 52 33 52 24 0 26 -3 23 -37z"/>
<path d="M4605 5635 c-49 -48 -19 -115 51 -115 24 0 34 4 31 13 -2 6 -14 11
-26 9 -22 -3 -51 13 -51 29 0 5 20 9 45 9 38 0 45 3 45 20 0 24 -34 60 -55 60
-9 0 -27 -11 -40 -25z m63 -22 c2 -9 -7 -13 -27 -13 -30 0 -39 9 -24 24 11 10
46 3 51 -11z"/>
<path d="M4938 5649 c-29 -17 -22 -55 12 -69 37 -15 34 -35 -6 -35 -41 -1 -36
-19 7 -23 67 -6 78 46 16 76 -36 17 -34 32 4 32 20 0 29 4 27 13 -6 16 -38 20
-60 6z"/>
<path d="M5903 5654 c-20 -9 -18 -134 2 -134 11 0 15 13 15 54 0 49 2 55 23
58 12 2 21 8 20 13 -3 11 -41 17 -60 9z"/>
<path d="M2670 5597 c0 -63 11 -77 62 -77 l38 0 0 65 c0 37 -4 65 -10 65 -5 0
-10 -25 -10 -55 0 -46 -3 -55 -18 -55 -29 0 -42 21 -42 67 0 24 -4 43 -10 43
-5 0 -10 -24 -10 -53z"/>
<path d="M5150 5440 c0 -6 50 -10 130 -10 80 0 130 4 130 10 0 6 -50 10 -130
10 -80 0 -130 -4 -130 -10z"/>
<path d="M4470 5280 c0 -80 4 -130 10 -130 6 0 10 50 10 130 0 80 -4 130 -10
130 -6 0 -10 -50 -10 -130z"/>
<path d="M4790 5280 c0 -80 4 -130 10 -130 6 0 10 50 10 130 0 80 -4 130 -10
130 -6 0 -10 -50 -10 -130z"/>
<path d="M5110 5280 c0 -80 4 -130 10 -130 6 0 10 50 10 130 0 80 -4 130 -10
130 -6 0 -10 -50 -10 -130z"/>
<path d="M4200 5280 l0 -120 120 0 120 0 0 120 0 120 -120 0 -120 0 0 -120z
m140 -4 c0 -39 -14 -53 -35 -36 -18 15 -19 42 -3 58 22 22 38 13 38 -22z"/>
<path d="M4520 5280 l0 -120 120 0 120 0 0 120 0 120 -120 0 -120 0 0 -120z
m136 19 c3 -5 -1 -9 -8 -9 -7 0 -23 -3 -35 -6 -18 -5 -23 -2 -23 13 0 16 5 19
30 15 17 -2 33 -8 36 -13z m4 -54 c0 -8 -9 -15 -20 -15 -20 0 -26 11 -13 23
12 13 33 7 33 -8z"/>
<path d="M4840 5280 l0 -120 120 0 120 0 0 120 0 120 -120 0 -120 0 0 -120z
m138 9 c-12 -44 -24 -41 -34 9 -6 29 -4 32 19 32 24 0 25 -1 15 -41z m-48 -51
c0 -5 -4 -8 -10 -8 -5 0 -10 10 -10 23 0 18 2 19 10 7 5 -8 10 -18 10 -22z
m80 12 c0 -11 -4 -20 -9 -20 -5 0 -7 9 -4 20 3 11 7 20 9 20 2 0 4 -9 4 -20z"/>
<path d="M5160 5280 l0 -120 120 0 120 0 0 120 0 120 -120 0 -120 0 0 -120z
m136 19 c3 -5 -1 -9 -8 -9 -7 0 -23 -3 -35 -6 -18 -5 -23 -2 -23 13 0 16 5 19
30 15 17 -2 33 -8 36 -13z m4 -54 c0 -8 -9 -15 -20 -15 -20 0 -26 11 -13 23
12 13 33 7 33 -8z"/>
<path d="M1710 5295 c0 -57 4 -95 10 -95 6 0 10 25 10 56 0 54 0 55 28 52 25
-3 27 -6 30 -56 4 -73 28 -65 25 8 -1 58 -18 80 -60 80 -18 0 -23 6 -23 25 0
14 -4 25 -10 25 -6 0 -10 -38 -10 -95z"/>
<path d="M2670 5295 c0 -57 4 -95 10 -95 6 0 10 25 10 56 0 54 0 55 28 52 25
-3 27 -6 30 -56 4 -73 28 -65 25 8 -1 58 -18 80 -60 80 -18 0 -23 6 -23 25 0
14 -4 25 -10 25 -6 0 -10 -38 -10 -95z"/>
<path d="M5550 5295 c0 -57 4 -95 10 -95 6 0 10 25 10 56 0 54 0 55 28 52 25
-3 27 -6 30 -56 4 -73 28 -65 25 8 -1 58 -18 80 -60 80 -18 0 -23 6 -23 25 0
14 -4 25 -10 25 -6 0 -10 -38 -10 -95z"/>
<path d="M3970 5296 c0 -52 4 -77 14 -86 17 -13 58 -10 54 5 -1 6 -9 9 -17 7
-19 -5 -31 16 -31 56 0 28 3 32 25 32 14 0 25 5 25 10 0 6 -11 10 -25 10 -18
0 -25 5 -25 20 0 11 -4 20 -10 20 -6 0 -10 -31 -10 -74z"/>
<path d="M134 5315 c-46 -46 -17 -115 48 -115 16 0 28 5 28 13 0 7 -11 13 -26
12 -33 0 -49 24 -40 58 5 22 12 27 37 27 20 0 29 4 27 13 -8 23 -47 19 -74 -8z"/>
<path d="M447 5333 c-15 -14 -6 -23 23 -23 20 0 30 -5 30 -15 0 -10 -10 -15
-30 -15 -36 0 -56 -30 -40 -60 8 -15 21 -20 55 -20 l45 0 0 53 c0 40 -5 58
-18 70 -19 17 -53 22 -65 10z m53 -93 c0 -13 -7 -20 -19 -20 -22 0 -35 15 -26
30 12 19 45 11 45 -10z"/>
<path d="M783 5334 c-20 -9 -18 -134 2 -134 11 0 15 13 15 54 0 49 2 55 23 58
12 2 21 8 20 13 -3 11 -41 17 -60 9z"/>
<path d="M1085 5315 c-49 -48 -19 -115 51 -115 24 0 34 4 31 13 -2 6 -14 11
-26 9 -22 -3 -51 13 -51 29 0 5 20 9 45 9 38 0 45 3 45 20 0 24 -34 60 -55 60
-9 0 -27 -11 -40 -25z m63 -22 c2 -9 -7 -13 -27 -13 -30 0 -39 9 -24 24 11 10
46 3 51 -11z"/>
<path d="M1413 5330 c-27 -11 -39 -53 -27 -89 8 -21 17 -27 46 -29 49 -4 41
-32 -8 -32 -19 0 -34 -4 -34 -10 0 -14 74 -12 88 2 7 7 12 41 12 84 0 56 -3
73 -16 78 -20 8 -34 7 -61 -4z m55 -57 c-3 -33 -6 -38 -28 -38 -19 0 -26 6
-28 23 -5 36 5 52 33 52 24 0 26 -3 23 -37z"/>
<path d="M2054 5315 c-46 -46 -17 -115 48 -115 16 0 28 5 28 13 0 7 -11 13
-26 12 -33 0 -49 24 -40 58 5 22 12 27 37 27 20 0 29 4 27 13 -8 23 -47 19
-74 -8z"/>
<path d="M2378 5329 c-29 -17 -22 -55 12 -69 37 -15 34 -35 -6 -35 -41 -1 -36
-19 7 -23 67 -6 78 46 16 76 -36 17 -34 32 4 32 20 0 29 4 27 13 -6 16 -38 20
-60 6z"/>
<path d="M3005 5315 c-49 -48 -19 -115 51 -115 24 0 34 4 31 13 -2 6 -14 11
-26 9 -22 -3 -51 13 -51 29 0 5 20 9 45 9 38 0 45 3 45 20 0 24 -34 60 -55 60
-9 0 -27 -11 -40 -25z m63 -22 c2 -9 -7 -13 -27 -13 -30 0 -39 9 -24 24 11 10
46 3 51 -11z"/>
<path d="M3325 5315 c-49 -48 -19 -115 51 -115 24 0 34 4 31 13 -2 6 -14 11
-26 9 -22 -3 -51 13 -51 29 0 5 20 9 45 9 38 0 45 3 45 20 0 24 -34 60 -55 60
-9 0 -27 -11 -40 -25z m63 -22 c2 -9 -7 -13 -27 -13 -30 0 -39 9 -24 24 11 10
46 3 51 -11z"/>
<path d="M3643 5333 c-16 -6 -18 -133 -3 -133 6 0 10 25 10 56 0 54 0 55 28
52 25 -3 27 -6 30 -56 4 -73 28 -65 25 8 -1 69 -35 96 -90 73z"/>
<path d="M5883 5333 c-16 -6 -18 -133 -3 -133 6 0 10 25 10 56 0 54 0 55 28
52 25 -3 27 -6 30 -56 4 -73 28 -65 25 8 -1 69 -35 96 -90 73z"/>
<path d="M4190 5120 c0 -6 50 -10 130 -10 80 0 130 4 130 10 0 6 -50 10 -130
10 -80 0 -130 -4 -130 -10z"/>
<path d="M4510 5120 c0 -6 50 -10 130 -10 80 0 130 4 130 10 0 6 -50 10 -130
10 -80 0 -130 -4 -130 -10z"/>
<path d="M4150 4960 c0 -80 4 -130 10 -130 6 0 10 50 10 130 0 80 -4 130 -10
130 -6 0 -10 -50 -10 -130z"/>
<path d="M4470 4960 c0 -80 4 -130 10 -130 6 0 10 50 10 130 0 80 -4 130 -10
130 -6 0 -10 -50 -10 -130z"/>
<path d="M3880 4960 l0 -120 120 0 120 0 0 120 0 120 -120 0 -120 0 0 -120z"/>
<path d="M4200 4960 l0 -120 120 0 120 0 0 120 0 120 -120 0 -120 0 0 -120z"/>
<path d="M4520 4960 l0 -120 120 0 120 0 0 120 0 120 -120 0 -120 0 0 -120z
m90 0 c0 -27 -4 -50 -10 -50 -5 0 -10 23 -10 50 0 28 5 50 10 50 6 0 10 -22
10 -50z m80 -10 c0 -36 -2 -40 -25 -40 -22 0 -25 4 -25 40 0 36 3 40 25 40 23
0 25 -4 25 -40z"/>
<path d="M144 5059 c-10 -17 13 -36 27 -22 12 12 4 33 -11 33 -5 0 -12 -5 -16
-11z"/>
<path d="M2030 4975 c0 -78 3 -95 15 -95 10 0 15 10 15 33 l1 32 28 -32 c25
-30 51 -43 51 -26 0 4 -12 19 -27 35 l-27 28 22 23 c12 13 22 26 22 30 0 14
-24 6 -47 -15 l-23 -21 0 51 c0 40 -4 52 -15 52 -12 0 -15 -17 -15 -95z"/>
<path d="M5230 4975 l0 -95 38 0 c25 0 45 7 55 18 40 44 3 131 -49 118 -21 -6
-24 -3 -24 24 0 16 -4 30 -10 30 -6 0 -10 -38 -10 -95z m78 -24 c4 -35 -9 -51
-40 -51 -15 0 -18 9 -18 46 0 44 1 45 28 42 23 -3 28 -8 30 -37z"/>
<path d="M443 5013 c-16 -6 -18 -133 -3 -133 6 0 10 25 10 56 0 54 0 55 28 52
25 -3 27 -6 30 -56 4 -73 28 -65 25 8 -1 69 -35 96 -90 73z"/>
<path d="M773 5010 c-27 -11 -39 -53 -27 -89 8 -21 17 -27 46 -29 49 -4 41
-32 -8 -32 -19 0 -34 -4 -34 -10 0 -14 74 -12 88 2 7 7 12 41 12 84 0 56 -3
73 -16 78 -20 8 -34 7 -61 -4z m55 -57 c-3 -33 -6 -38 -28 -38 -19 0 -26 6
-28 23 -5 36 5 52 33 52 24 0 26 -3 23 -37z"/>
<path d="M1103 5014 c-20 -9 -18 -134 2 -134 11 0 15 13 15 54 0 49 2 55 23
58 12 2 21 8 20 13 -3 11 -41 17 -60 9z"/>
<path d="M1743 5014 c-20 -9 -18 -134 2 -134 11 0 15 13 15 54 0 49 2 55 23
58 12 2 21 8 20 13 -3 11 -41 17 -60 9z"/>
<path d="M2687 5013 c-15 -14 -6 -23 23 -23 20 0 30 -5 30 -15 0 -10 -10 -15
-30 -15 -36 0 -56 -30 -40 -60 8 -15 21 -20 55 -20 l45 0 0 53 c0 40 -5 58
-18 70 -19 17 -53 22 -65 10z m53 -93 c0 -21 -33 -29 -45 -10 -9 15 4 30 26
30 12 0 19 -7 19 -20z"/>
<path d="M3023 5014 c-20 -9 -18 -134 2 -134 11 0 15 13 15 54 0 49 2 55 23
58 12 2 21 8 20 13 -3 11 -41 17 -60 9z"/>
<path d="M3327 5013 c-15 -14 -6 -23 23 -23 20 0 30 -5 30 -15 0 -10 -10 -15
-30 -15 -36 0 -56 -30 -40 -60 8 -15 21 -20 55 -20 l45 0 0 53 c0 40 -5 58
-18 70 -19 17 -53 22 -65 10z m53 -93 c0 -21 -33 -29 -45 -10 -9 15 4 30 26
30 12 0 19 -7 19 -20z"/>
<path d="M3603 5013 c-20 -7 -18 -133 2 -133 12 0 15 13 15 56 0 52 1 55 23
52 19 -3 22 -10 25 -55 4 -70 22 -68 22 2 0 52 1 55 25 55 24 0 25 -3 25 -55
0 -42 3 -55 15 -55 11 0 15 12 15 53 0 74 -7 81 -87 83 -37 1 -74 -1 -80 -3z"/>
<path d="M4938 5009 c-29 -17 -22 -55 12 -69 37 -15 34 -35 -6 -35 -41 -1 -36
-19 7 -23 67 -6 78 46 16 76 -36 17 -34 32 4 32 20 0 29 4 27 13 -6 16 -38 20
-60 6z"/>
<path d="M150 4945 c0 -37 4 -65 10 -65 6 0 10 28 10 65 0 37 -4 65 -10 65 -6
0 -10 -28 -10 -65z"/>
<path d="M1390 4957 c0 -63 11 -77 62 -77 l38 0 0 65 c0 37 -4 65 -10 65 -5 0
-10 -25 -10 -55 0 -46 -3 -55 -18 -55 -29 0 -42 21 -42 67 0 24 -4 43 -10 43
-5 0 -10 -24 -10 -53z"/>
<path d="M2346 4988 c3 -13 15 -40 26 -61 22 -44 18 -67 -12 -67 -11 0 -20 -4
-20 -10 0 -20 50 -10 65 13 12 19 55 131 55 144 0 1 -6 3 -14 3 -7 0 -19 -20
-26 -46 -14 -50 -22 -48 -40 9 -6 21 -18 37 -26 37 -11 0 -13 -6 -8 -22z"/>
<path d="M3870 4800 c0 -6 50 -10 130 -10 80 0 130 4 130 10 0 6 -50 10 -130
10 -80 0 -130 -4 -130 -10z"/>
<path d="M4180 4640 l0 -140 140 0 140 0 0 140 0 140 -140 0 -140 0 0 -140z"/>
<path d="M2870 4640 c0 -80 4 -130 10 -130 6 0 10 50 10 130 0 80 -4 130 -10
130 -6 0 -10 -50 -10 -130z"/>
<path d="M3190 4640 c0 -80 4 -130 10 -130 6 0 10 50 10 130 0 80 -4 130 -10
130 -6 0 -10 -50 -10 -130z"/>
<path d="M3510 4640 c0 -80 4 -130 10 -130 6 0 10 50 10 130 0 80 -4 130 -10
130 -6 0 -10 -50 -10 -130z"/>
<path d="M3830 4640 c0 -80 4 -130 10 -130 6 0 10 50 10 130 0 80 -4 130 -10
130 -6 0 -10 -50 -10 -130z"/>
<path d="M2600 4640 l0 -120 120 0 120 0 0 120 0 120 -120 0 -120 0 0 -120z"/>
<path d="M2920 4640 l0 -120 120 0 120 0 0 120 0 120 -120 0 -120 0 0 -120z"/>
<path d="M3240 4640 l0 -120 120 0 120 0 0 120 0 120 -120 0 -120 0 0 -120z"/>
<path d="M3560 4640 l0 -120 120 0 120 0 0 120 0 120 -120 0 -120 0 0 -120z"/>
<path d="M3880 4640 l0 -120 120 0 120 0 0 120 0 120 -120 0 -120 0 0 -120z"/>
<path d="M1710 4655 c0 -57 4 -95 10 -95 6 0 10 25 10 56 0 54 0 55 28 52 25
-3 27 -6 30 -56 4 -73 28 -65 25 8 -1 58 -18 80 -60 80 -18 0 -23 6 -23 25 0
14 -4 25 -10 25 -6 0 -10 -38 -10 -95z"/>
<path d="M1410 4656 c0 -52 4 -77 14 -86 17 -13 58 -10 54 5 -1 6 -9 9 -17 7
-19 -5 -31 16 -31 56 0 28 3 32 25 32 14 0 25 5 25 10 0 6 -11 10 -25 10 -18
0 -25 5 -25 20 0 11 -4 20 -10 20 -6 0 -10 -31 -10 -74z"/>
<path d="M125 4675 c-49 -48 -19 -115 51 -115 24 0 34 4 31 13 -2 6 -14 11
-26 9 -22 -3 -51 13 -51 29 0 5 20 9 45 9 38 0 45 3 45 20 0 24 -34 60 -55 60
-9 0 -27 -11 -40 -25z m63 -22 c2 -9 -7 -13 -27 -13 -30 0 -39 9 -24 24 11 10
46 3 51 -11z"/>
<path d="M453 4690 c-27 -11 -39 -53 -27 -89 8 -21 17 -27 46 -29 49 -4 41
-32 -8 -32 -19 0 -34 -4 -34 -10 0 -14 74 -12 88 2 7 7 12 41 12 84 0 56 -3
73 -16 78 -20 8 -34 7 -61 -4z m55 -57 c-3 -33 -6 -38 -28 -38 -19 0 -26 6
-28 23 -5 36 5 52 33 52 24 0 26 -3 23 -37z"/>
<path d="M763 4693 c-16 -6 -18 -133 -3 -133 6 0 10 25 10 56 0 54 0 55 28 52
25 -3 27 -6 30 -56 4 -73 28 -65 25 8 -1 69 -35 96 -90 73z"/>
<path d="M1087 4693 c-15 -14 -6 -23 23 -23 20 0 30 -5 30 -15 0 -10 -10 -15
-30 -15 -36 0 -56 -30 -40 -60 8 -15 21 -20 55 -20 l45 0 0 53 c0 40 -5 58
-18 70 -19 17 -53 22 -65 10z m53 -93 c0 -13 -7 -20 -19 -20 -22 0 -35 15 -26
30 12 19 45 11 45 -10z"/>
<path d="M2045 4675 c-49 -48 -19 -115 51 -115 24 0 34 4 31 13 -2 6 -14 11
-26 9 -22 -3 -51 13 -51 29 0 5 20 9 45 9 38 0 45 3 45 20 0 24 -34 60 -55 60
-9 0 -27 -11 -40 -25z m63 -22 c2 -9 -7 -13 -27 -13 -30 0 -39 9 -24 24 11 10
46 3 51 -11z"/>
<path d="M2365 4675 c-49 -48 -19 -115 51 -115 24 0 34 4 31 13 -2 6 -14 11
-26 9 -22 -3 -51 13 -51 29 0 5 20 9 45 9 38 0 45 3 45 20 0 24 -34 60 -55 60
-9 0 -27 -11 -40 -25z m63 -22 c2 -9 -7 -13 -27 -13 -30 0 -39 9 -24 24 11 10
46 3 51 -11z"/>
<path d="M4623 4694 c-20 -9 -18 -134 2 -134 11 0 15 13 15 54 0 49 2 55 23
58 12 2 21 8 20 13 -3 11 -41 17 -60 9z"/>
<path d="M2590 4480 c0 -6 50 -10 130 -10 80 0 130 4 130 10 0 6 -50 10 -130
10 -80 0 -130 -4 -130 -10z"/>
<path d="M2910 4480 c0 -6 50 -10 130 -10 80 0 130 4 130 10 0 6 -50 10 -130
10 -80 0 -130 -4 -130 -10z"/>
<path d="M3230 4480 c0 -6 50 -10 130 -10 80 0 130 4 130 10 0 6 -50 10 -130
10 -80 0 -130 -4 -130 -10z"/>
<path d="M2550 4320 c0 -80 4 -130 10 -130 6 0 10 50 10 130 0 80 -4 130 -10
130 -6 0 -10 -50 -10 -130z"/>
<path d="M2870 4320 c0 -80 4 -130 10 -130 6 0 10 50 10 130 0 80 -4 130 -10
130 -6 0 -10 -50 -10 -130z"/>
<path d="M3190 4320 c0 -80 4 -130 10 -130 6 0 10 50 10 130 0 80 -4 130 -10
130 -6 0 -10 -50 -10 -130z"/>
<path d="M2280 4320 l0 -120 120 0 120 0 0 120 0 120 -120 0 -120 0 0 -120z"/>
<path d="M2600 4320 l0 -120 120 0 120 0 0 120 0 120 -120 0 -120 0 0 -120z"/>
<path d="M2920 4320 l0 -120 120 0 120 0 0 120 0 120 -120 0 -120 0 0 -120z"/>
<path d="M3240 4320 l0 -120 120 0 120 0 0 120 0 120 -120 0 -120 0 0 -120z"/>
<path d="M464 4419 c-10 -17 13 -36 27 -22 12 12 4 33 -11 33 -5 0 -12 -5 -16
-11z"/>
<path d="M750 4335 c0 -78 3 -95 15 -95 10 0 15 10 15 33 l1 32 28 -32 c25
-30 51 -43 51 -26 0 4 -12 19 -27 35 l-27 28 22 23 c12 13 22 26 22 30 0 14
-24 6 -47 -15 l-23 -21 0 51 c0 40 -4 52 -15 52 -12 0 -15 -17 -15 -95z"/>
<path d="M1390 4335 c0 -57 4 -95 10 -95 6 0 10 25 10 56 0 54 0 55 28 52 25
-3 27 -6 30 -56 4 -73 28 -65 25 8 -1 58 -18 80 -60 80 -18 0 -23 6 -23 25 0
14 -4 25 -10 25 -6 0 -10 -38 -10 -95z"/>
<path d="M143 4374 c-20 -9 -18 -134 2 -134 11 0 15 13 15 54 0 49 2 55 23 58
12 2 21 8 20 13 -3 11 -41 17 -60 9z"/>
<path d="M1083 4373 c-16 -6 -18 -133 -3 -133 6 0 10 25 10 56 0 54 0 55 28
52 25 -3 27 -6 30 -56 4 -73 28 -65 25 8 -1 69 -35 96 -90 73z"/>
<path d="M1743 4374 c-20 -9 -18 -134 2 -134 11 0 15 13 15 54 0 49 2 55 23
58 12 2 21 8 20 13 -3 11 -41 17 -60 9z"/>
<path d="M2043 4373 c-16 -6 -18 -133 -3 -133 6 0 10 25 10 56 0 54 0 55 28
52 25 -3 27 -6 30 -56 4 -73 28 -65 25 8 -1 69 -35 96 -90 73z"/>
<path d="M3663 4374 c-20 -9 -18 -134 2 -134 11 0 15 13 15 54 0 49 2 55 23
58 12 2 21 8 20 13 -3 11 -41 17 -60 9z"/>
<path d="M3963 4374 c-16 -7 -18 -174 -3 -174 6 0 10 9 10 20 0 15 7 20 28 20
16 0 36 8 45 18 20 22 22 71 5 95 -14 18 -64 30 -85 21z m65 -66 c3 -29 -1
-38 -17 -43 -31 -10 -41 2 -41 46 0 38 2 40 28 37 23 -3 27 -8 30 -40z"/>
<path d="M470 4305 c0 -37 4 -65 10 -65 6 0 10 28 10 65 0 37 -4 65 -10 65 -6
0 -10 -28 -10 -65z"/>
<path d="M2270 4160 c0 -6 50 -10 130 -10 80 0 130 4 130 10 0 6 -50 10 -130
10 -80 0 -130 -4 -130 -10z"/>
<path d="M2900 4000 l0 -140 140 0 140 0 0 140 0 140 -140 0 -140 0 0 -140z"/>
<path d="M2280 4000 l0 -120 120 0 120 0 0 120 0 120 -120 0 -120 0 0 -120z"/>
<path d="M784 4099 c-10 -17 13 -36 27 -22 12 12 4 33 -11 33 -5 0 -12 -5 -16
-11z"/>
<path d="M2030 4015 c0 -57 4 -95 10 -95 6 0 10 25 10 56 0 54 0 55 28 52 25
-3 27 -6 30 -56 4 -73 28 -65 25 8 -1 58 -18 80 -60 80 -18 0 -23 6 -23 25 0
14 -4 25 -10 25 -6 0 -10 -38 -10 -95z"/>
<path d="M133 4050 c-27 -11 -39 -53 -27 -89 8 -21 17 -27 46 -29 49 -4 41
-32 -8 -32 -19 0 -34 -4 -34 -10 0 -14 74 -12 88 2 7 7 12 41 12 84 0 56 -3
73 -16 78 -20 8 -34 7 -61 -4z m55 -57 c-3 -33 -6 -38 -28 -38 -19 0 -26 6
-28 23 -5 36 5 52 33 52 24 0 26 -3 23 -37z"/>
<path d="M443 4053 c-16 -6 -18 -133 -3 -133 6 0 10 25 10 56 0 54 0 55 28 52
25 -3 27 -6 30 -56 4 -73 28 -65 25 8 -1 69 -35 96 -90 73z"/>
<path d="M1083 4053 c-16 -6 -18 -133 -3 -133 6 0 10 25 10 56 0 54 0 55 28
52 25 -3 27 -6 30 -56 4 -73 28 -65 25 8 -1 69 -35 96 -90 73z"/>
<path d="M1720 4040 c-26 -26 -26 -81 -2 -103 24 -22 65 -21 85 1 37 40 7 122
-43 122 -11 0 -29 -9 -40 -20z m68 -51 c2 -26 -2 -38 -12 -42 -28 -11 -46 4
-46 37 0 39 7 48 35 44 15 -2 21 -12 23 -39z"/>
<path d="M2683 4054 c-16 -7 -18 -174 -3 -174 6 0 10 9 10 20 0 15 7 20 28 20
16 0 36 8 45 18 20 22 22 71 5 95 -14 18 -64 30 -85 21z m65 -66 c3 -29 -1
-38 -17 -43 -31 -10 -41 2 -41 46 0 38 2 40 28 37 23 -3 27 -8 30 -40z"/>
<path d="M3338 4049 c-29 -17 -22 -55 12 -69 37 -15 34 -35 -6 -35 -41 -1 -36
-19 7 -23 67 -6 78 46 16 76 -36 17 -34 32 4 32 20 0 29 4 27 13 -6 16 -38 20
-60 6z"/>
<path d="M790 3985 c0 -37 4 -65 10 -65 6 0 10 28 10 65 0 37 -4 65 -10 65 -6
0 -10 -28 -10 -65z"/>
<path d="M1390 3997 c0 -63 11 -77 62 -77 l38 0 0 65 c0 37 -4 65 -10 65 -5 0
-10 -25 -10 -55 0 -46 -3 -55 -18 -55 -29 0 -42 21 -42 67 0 24 -4 43 -10 43
-5 0 -10 -24 -10 -53z"/>
<path d="M2270 3840 c0 -6 50 -10 130 -10 80 0 130 4 130 10 0 6 -50 10 -130
10 -80 0 -130 -4 -130 -10z"/>
<path d="M2550 3680 c0 -80 4 -130 10 -130 6 0 10 50 10 130 0 80 -4 130 -10
130 -6 0 -10 -50 -10 -130z"/>
<path d="M3247 3803 c-4 -3 -7 -57 -7 -120 l0 -113 120 0 120 0 0 120 0 120
-113 0 c-63 0 -117 -3 -120 -7z m153 -74 c0 -5 -4 -8 -9 -5 -5 4 -16 3 -25 0
-12 -5 -16 -20 -16 -61 0 -33 -4 -52 -10 -48 -11 7 -14 108 -3 118 11 11 63 8
63 -4z"/>
<path d="M2280 3680 l0 -120 120 0 120 0 0 120 0 120 -120 0 -120 0 0 -120z"/>
<path d="M830 3760 c0 -27 -3 -30 -24 -24 -34 8 -66 -26 -66 -69 0 -46 27 -69
77 -65 l38 3 3 93 c2 77 0 92 -13 92 -10 0 -15 -10 -15 -30z m0 -95 c0 -37 -3
-45 -18 -45 -26 0 -42 20 -42 50 0 33 7 40 37 40 21 0 23 -5 23 -45z"/>
<path d="M1100 3714 c0 -79 11 -114 35 -114 17 0 20 16 5 25 -5 3 -10 42 -10
86 0 64 -3 79 -15 79 -12 0 -15 -15 -15 -76z"/>
<path d="M1410 3696 c0 -52 4 -77 14 -86 17 -13 58 -10 54 5 -1 6 -9 9 -17 7
-19 -5 -31 16 -31 56 0 28 3 32 25 32 14 0 25 5 25 10 0 6 -11 10 -25 10 -18
0 -25 5 -25 20 0 11 -4 20 -10 20 -6 0 -10 -31 -10 -74z"/>
<path d="M3132 3744 c-17 -12 -22 -25 -22 -58 0 -29 -6 -48 -18 -59 -28 -25
-77 -21 -106 8 -35 35 -66 20 -66 -30 l0 -35 120 0 120 0 0 95 c0 52 -1 95 -3
95 -1 0 -13 -7 -25 -16z"/>
<path d="M138 3729 c-29 -17 -22 -55 12 -69 37 -15 34 -35 -6 -35 -41 -1 -36
-19 7 -23 67 -6 78 46 16 76 -36 17 -34 32 4 32 20 0 29 4 27 13 -6 16 -38 20
-60 6z"/>
<path d="M443 3733 c-16 -6 -18 -133 -3 -133 6 0 10 25 10 56 0 54 0 55 28 52
25 -3 27 -6 30 -56 4 -73 28 -65 25 8 -1 69 -35 96 -90 73z"/>
<path d="M1727 3733 c-15 -14 -6 -23 23 -23 20 0 30 -5 30 -15 0 -10 -10 -15
-30 -15 -36 0 -56 -30 -40 -60 8 -15 21 -20 55 -20 l45 0 0 53 c0 40 -5 58
-18 70 -19 17 -53 22 -65 10z m53 -93 c0 -13 -7 -20 -19 -20 -22 0 -35 15 -26
30 12 19 45 11 45 -10z"/>
<path d="M2058 3729 c-29 -17 -22 -55 12 -69 37 -15 34 -35 -6 -35 -41 -1 -36
-19 7 -23 67 -6 78 46 16 76 -36 17 -34 32 4 32 20 0 29 4 27 13 -6 16 -38 20
-60 6z"/>
<path d="M3023 3733 c-11 -4 -20 -43 -10 -43 13 0 75 39 70 44 -7 7 -42 7 -60
-1z"/>
<path d="M3014 3659 c-3 -6 -2 -15 3 -20 5 -5 9 -1 9 11 0 23 -2 24 -12 9z"/>
<path d="M2270 3520 c0 -6 50 -10 130 -10 80 0 130 4 130 10 0 6 -50 10 -130
10 -80 0 -130 -4 -130 -10z"/>
<path d="M2600 3370 l0 -120 120 0 120 0 0 120 0 120 -120 0 -120 0 0 -120z
m178 58 c7 -7 12 -32 12 -57 0 -74 -44 -100 -110 -66 -27 14 -30 21 -30 63 0
27 5 53 12 60 16 16 100 16 116 0z"/>
<path d="M2713 3423 c9 -2 23 -2 30 0 6 3 -1 5 -18 5 -16 0 -22 -2 -12 -5z"/>
<path d="M2723 3313 c9 -2 25 -2 35 0 9 3 1 5 -18 5 -19 0 -27 -2 -17 -5z"/>
<path d="M2280 3365 l0 -115 120 0 120 0 0 115 0 115 -120 0 -120 0 0 -115z
m174 -56 c-9 -10 -28 -19 -41 -19 -29 0 -83 26 -83 40 0 14 60 50 83 50 9 0
17 4 17 9 0 5 8 11 18 13 25 5 30 -67 6 -93z"/>
<path d="M2403 3313 c9 -2 25 -2 35 0 9 3 1 5 -18 5 -19 0 -27 -2 -17 -5z"/>
<path d="M1104 3459 c-10 -17 13 -36 27 -22 12 12 4 33 -11 33 -5 0 -12 -5
-16 -11z"/>
<path d="M130 3376 c0 -52 4 -77 14 -86 17 -13 58 -10 54 5 -1 6 -9 9 -17 7
-19 -5 -31 16 -31 56 0 28 3 32 25 32 14 0 25 5 25 10 0 6 -11 10 -25 10 -18
0 -25 5 -25 20 0 11 -4 20 -10 20 -6 0 -10 -31 -10 -74z"/>
<path d="M2050 3376 c0 -52 4 -77 14 -86 17 -13 58 -10 54 5 -1 6 -9 9 -17 7
-19 -5 -31 16 -31 56 0 28 3 32 25 32 14 0 25 5 25 10 0 6 -11 10 -25 10 -18
0 -25 5 -25 20 0 11 -4 20 -10 20 -6 0 -10 -31 -10 -74z"/>
<path d="M440 3400 c-26 -26 -26 -81 -2 -103 24 -22 65 -21 85 1 37 40 7 122
-43 122 -11 0 -29 -9 -40 -20z m68 -51 c2 -26 -2 -38 -12 -42 -28 -11 -46 4
-46 37 0 39 7 48 35 44 15 -2 21 -12 23 -39z"/>
<path d="M778 3409 c-29 -17 -22 -55 12 -69 37 -15 34 -35 -6 -35 -41 -1 -36
-19 7 -23 67 -6 78 46 16 76 -36 17 -34 32 4 32 20 0 29 4 27 13 -6 16 -38 20
-60 6z"/>
<path d="M1403 3414 c-16 -7 -18 -174 -3 -174 6 0 10 9 10 20 0 15 7 20 28 20
16 0 36 8 45 18 20 22 22 71 5 95 -14 18 -64 30 -85 21z m65 -66 c3 -29 -1
-38 -17 -43 -31 -10 -41 2 -41 46 0 38 2 40 28 37 23 -3 27 -8 30 -40z"/>
<path d="M1720 3400 c-26 -26 -26 -81 -2 -103 24 -22 65 -21 85 1 37 40 7 122
-43 122 -11 0 -29 -9 -40 -20z m68 -51 c2 -26 -2 -38 -12 -42 -28 -11 -46 4
-46 37 0 39 7 48 35 44 15 -2 21 -12 23 -39z"/>
<path d="M1110 3345 c0 -37 4 -65 10 -65 6 0 10 28 10 65 0 37 -4 65 -10 65
-6 0 -10 -28 -10 -65z"/>
<path d="M110 3055 c0 -57 4 -95 10 -95 6 0 10 25 10 56 0 54 0 55 28 52 25
-3 27 -6 30 -56 4 -73 28 -65 25 8 -1 58 -18 80 -60 80 -18 0 -23 6 -23 25 0
14 -4 25 -10 25 -6 0 -10 -38 -10 -95z"/>
<path d="M784 3139 c-10 -17 13 -36 27 -22 12 12 4 33 -11 33 -5 0 -12 -5 -16
-11z"/>
<path d="M1070 3055 c0 -78 3 -95 15 -95 10 0 15 10 15 33 l1 32 28 -32 c25
-30 51 -43 51 -26 0 4 -12 19 -27 35 l-27 28 22 23 c12 13 22 26 22 30 0 14
-24 6 -47 -15 l-23 -21 0 51 c0 40 -4 52 -15 52 -12 0 -15 -17 -15 -95z"/>
<path d="M447 3093 c-15 -14 -6 -23 23 -23 20 0 30 -5 30 -15 0 -10 -10 -15
-30 -15 -36 0 -56 -30 -40 -60 8 -15 21 -20 55 -20 l45 0 0 53 c0 40 -5 58
-18 70 -19 17 -53 22 -65 10z m53 -93 c0 -13 -7 -20 -19 -20 -22 0 -35 15 -26
30 12 19 45 11 45 -10z"/>
<path d="M1418 3089 c-29 -17 -22 -55 12 -69 37 -15 34 -35 -6 -35 -41 -1 -36
-19 7 -23 67 -6 78 46 16 76 -36 17 -34 32 4 32 20 0 29 4 27 13 -6 16 -38 20
-60 6z"/>
<path d="M790 3025 c0 -37 4 -65 10 -65 6 0 10 28 10 65 0 37 -4 65 -10 65 -6
0 -10 -28 -10 -65z"/>
<path d="M130 2736 c0 -52 4 -77 14 -86 17 -13 58 -10 54 5 -1 6 -9 9 -17 7
-19 -5 -31 16 -31 56 0 28 3 32 25 32 14 0 25 5 25 10 0 6 -11 10 -25 10 -18
0 -25 5 -25 20 0 11 -4 20 -10 20 -6 0 -10 -31 -10 -74z"/>
<path d="M447 2773 c-15 -14 -6 -23 23 -23 20 0 30 -5 30 -15 0 -10 -10 -15
-30 -15 -36 0 -56 -30 -40 -60 8 -15 21 -20 55 -20 l45 0 0 53 c0 40 -5 58
-18 70 -19 17 -53 22 -65 10z m53 -93 c0 -13 -7 -20 -19 -20 -22 0 -35 15 -26
30 12 19 45 11 45 -10z"/>
<path d="M763 2773 c-16 -6 -18 -133 -3 -133 6 0 10 25 10 56 0 54 0 55 28 52
25 -3 27 -6 30 -56 4 -73 28 -65 25 8 -1 69 -35 96 -90 73z"/>
<path d="M110 2415 c0 -57 4 -95 10 -95 6 0 10 25 10 56 0 54 0 55 28 52 25
-3 27 -6 30 -56 4 -73 28 -65 25 8 -1 58 -18 80 -60 80 -18 0 -23 6 -23 25 0
14 -4 25 -10 25 -6 0 -10 -38 -10 -95z"/>
<path d="M3560 3690 l0 -120 120 0 120 0 0 120 0 120 -120 0 -120 0 0 -120z
m110 70 c0 -15 7 -20 25 -20 14 0 25 -4 25 -10 0 -5 -12 -10 -26 -10 -23 0
-25 -3 -22 -42 2 -36 7 -44 26 -46 12 -2 22 -8 22 -13 0 -13 -44 -11 -58 3
-15 15 -17 158 -2 158 6 0 10 -9 10 -20z"/>
<path d="M2920 3370 l0 -120 120 0 120 0 0 120 0 120 -120 0 -120 0 0 -120z
m178 58 c16 -16 15 -103 -2 -117 -19 -16 -92 -17 -111 -1 -18 15 -21 100 -3
118 16 16 100 16 116 0z"/>
<path d="M3240 3370 l0 -120 120 0 120 0 0 120 0 120 -120 0 -120 0 0 -120z
m162 33 c37 -34 8 -113 -42 -113 -27 0 -60 35 -60 63 0 57 61 87 102 50z"/>
<path d="M3334 3385 c-22 -34 -5 -78 28 -73 33 5 47 51 23 78 -24 26 -31 25
-51 -5z"/>
<path d="M3560 3370 l0 -120 120 0 120 0 0 120 0 120 -120 0 -120 0 0 -120z
m130 25 c0 -53 4 -85 11 -85 5 0 8 -4 4 -10 -3 -5 -12 -7 -20 -3 -12 4 -15 25
-15 94 0 53 4 89 10 89 6 0 10 -35 10 -85z"/>
<path d="M3560 3050 l0 -120 120 0 120 0 0 120 0 120 -120 0 -120 0 0 -120z
m130 25 c0 -53 4 -85 11 -85 5 0 8 -4 4 -10 -3 -5 -12 -7 -20 -3 -12 4 -15 25
-15 94 0 53 4 89 10 89 6 0 10 -35 10 -85z"/>
<path d="M3560 2730 l0 -120 120 0 120 0 0 120 0 120 -120 0 -120 0 0 -120z
m162 33 c37 -34 8 -113 -42 -113 -27 0 -60 35 -60 63 0 57 61 87 102 50z"/>
<path d="M3654 2745 c-22 -34 -5 -78 28 -73 33 5 47 51 23 78 -24 26 -31 25
-51 -5z"/>
<path d="M3560 2410 l0 -120 120 0 120 0 0 120 0 120 -120 0 -120 0 0 -120z
m110 70 c0 -15 7 -20 25 -20 14 0 25 -4 25 -10 0 -5 -12 -10 -26 -10 -23 0
-25 -3 -22 -42 2 -36 7 -44 26 -46 12 -2 22 -8 22 -13 0 -13 -44 -11 -58 3
-15 15 -17 158 -2 158 6 0 10 -9 10 -20z"/>
<path d="M3560 2090 l0 -120 120 0 120 0 0 120 0 120 -120 0 -120 0 0 -120z
m156 43 c-4 -4 -17 -8 -28 -8 -33 0 -32 -22 1 -40 34 -17 43 -58 15 -69 -25
-9 -64 -7 -64 4 0 6 14 10 30 10 38 0 41 26 5 40 -53 20 -45 70 11 70 21 0 34
-3 30 -7z"/>
<path d="M3560 1770 l0 -120 120 0 120 0 0 120 0 120 -120 0 -120 0 0 -120z
m200 30 c13 -24 13 -97 0 -105 -6 -4 -10 11 -10 39 0 48 -20 79 -45 70 -11 -4
-15 -22 -15 -60 0 -30 -4 -54 -10 -54 -5 0 -10 22 -10 49 0 32 -5 53 -15 61
-23 19 -33 3 -37 -55 -4 -64 -22 -65 -26 -1 -5 73 -3 75 83 74 63 0 77 -3 85
-18z"/>
<path d="M3880 1770 l0 -120 120 0 120 0 0 120 0 120 -120 0 -120 0 0 -120z
m160 30 c6 -12 10 -40 8 -63 -3 -42 -3 -42 -42 -42 -67 0 -78 65 -12 73 14 2
26 9 26 17 0 16 -25 26 -45 19 -8 -4 -15 -1 -15 5 0 6 16 11 35 11 24 0 37 -6
45 -20z"/>
<path d="M3972 1733 c2 -10 13 -19 26 -21 17 -3 22 2 22 17 0 16 -6 21 -26 21
-19 0 -25 -5 -22 -17z"/>
<path d="M3880 1450 l0 -120 120 0 120 0 0 120 0 120 -120 0 -120 0 0 -120z
m130 25 c0 -53 4 -85 11 -85 5 0 8 -4 4 -10 -3 -5 -12 -7 -20 -3 -12 4 -15 25
-15 94 0 53 4 89 10 89 6 0 10 -35 10 -85z"/>
<path d="M4200 1450 l0 -120 120 0 120 0 0 120 0 120 -120 0 -120 0 0 -120z
m130 25 c0 -53 4 -85 11 -85 5 0 8 -4 4 -10 -3 -5 -12 -7 -20 -3 -12 4 -15 25
-15 94 0 53 4 89 10 89 6 0 10 -35 10 -85z"/>
<path d="M3880 1130 l0 -120 120 0 120 0 0 120 0 120 -120 0 -120 0 0 -120z
m160 30 c6 -12 10 -40 8 -63 -3 -42 -3 -42 -42 -42 -67 0 -78 65 -12 73 14 2
26 9 26 17 0 16 -25 26 -45 19 -8 -4 -15 -1 -15 5 0 6 16 11 35 11 24 0 37 -6
45 -20z"/>
<path d="M3972 1093 c2 -10 13 -19 26 -21 17 -3 22 2 22 17 0 16 -6 21 -26 21
-19 0 -25 -5 -22 -17z"/>
<path d="M4200 1130 l0 -120 120 0 120 0 0 120 0 120 -120 0 -120 0 0 -120z
m156 43 c-4 -4 -17 -8 -28 -8 -33 0 -32 -22 1 -40 34 -17 43 -58 15 -69 -25
-9 -64 -7 -64 4 0 6 14 10 30 10 38 0 41 26 5 40 -53 20 -45 70 11 70 21 0 34
-3 30 -7z"/>
<path d="M3560 810 l0 -120 120 0 120 0 0 120 0 120 -120 0 -120 0 0 -120z
m167 21 c16 -33 9 -41 -38 -41 -33 0 -40 -3 -37 -17 2 -13 14 -19 41 -21 42
-4 41 -22 -2 -22 -53 0 -85 74 -51 115 20 24 72 16 87 -14z"/>
<path d="M3662 838 c-19 -19 -14 -28 18 -28 17 0 30 4 30 8 0 9 -21 32 -30 32
-3 0 -11 -5 -18 -12z"/>
<path d="M3880 810 l0 -120 120 0 120 0 0 120 0 120 -120 0 -120 0 0 -120z
m158 38 c14 -14 16 -118 2 -118 -5 0 -10 22 -10 50 0 37 -4 52 -17 58 -32 17
-43 3 -43 -54 0 -30 -4 -54 -10 -54 -6 0 -10 28 -10 65 l0 65 38 0 c21 0 43
-5 50 -12z"/>
<path d="M3560 490 l0 -120 75 0 c72 0 75 1 75 24 0 19 -4 22 -24 19 -30 -6
-66 27 -66 60 0 41 27 67 71 67 l39 0 0 -85 0 -85 35 0 35 0 0 120 0 120 -120
0 -120 0 0 -120z"/>
<path d="M3661 511 c-12 -12 -21 -27 -21 -34 0 -24 26 -49 46 -45 15 3 19 12
19 47 0 51 -15 61 -44 32z"/>
<path d="M3880 490 l0 -120 120 0 120 0 0 120 0 120 -120 0 -120 0 0 -120z
m130 25 c0 -53 4 -85 11 -85 5 0 8 -4 4 -10 -3 -5 -12 -7 -20 -3 -12 4 -15 25
-15 94 0 53 4 89 10 89 6 0 10 -35 10 -85z"/>
<path d="M4200 490 l0 -120 120 0 120 0 0 120 0 120 -120 0 -120 0 0 -120z
m92 -2 c3 -49 5 -53 31 -56 27 -3 27 -2 27 52 0 32 4 56 10 56 7 0 10 -24 8
-62 -3 -62 -3 -63 -34 -66 -45 -4 -64 19 -64 79 0 66 18 63 22 -3z"/>
<path d="M3560 170 l0 -120 120 0 120 0 0 120 0 120 -120 0 -120 0 0 -120z
m92 -2 c3 -49 5 -53 31 -56 27 -3 27 -2 27 52 0 32 4 56 10 56 7 0 10 -24 8
-62 -3 -62 -3 -63 -34 -66 -45 -4 -64 19 -64 79 0 66 18 63 22 -3z"/>
<path d="M3880 170 l0 -120 120 0 120 0 0 120 0 120 -120 0 -120 0 0 -120z
m160 30 c6 -12 10 -40 8 -63 -3 -42 -3 -42 -42 -42 -67 0 -78 65 -12 73 14 2
26 9 26 17 0 16 -25 26 -45 19 -8 -4 -15 -1 -15 5 0 6 16 11 35 11 24 0 37 -6
45 -20z"/>
<path d="M3972 133 c2 -10 13 -19 26 -21 17 -3 22 2 22 17 0 16 -6 21 -26 21
-19 0 -25 -5 -22 -17z"/>
<path d="M4200 170 l0 -120 120 0 120 0 0 120 0 120 -120 0 -120 0 0 -120z
m160 39 c0 -5 -4 -8 -9 -5 -5 4 -16 3 -25 0 -12 -5 -16 -20 -16 -61 0 -33 -4
-52 -10 -48 -11 7 -14 108 -3 118 11 11 63 8 63 -4z"/>
<path d="M4520 170 l0 -120 120 0 120 0 0 120 0 120 -120 0 -120 0 0 -120z
m167 21 c16 -33 9 -41 -38 -41 -33 0 -40 -3 -37 -17 2 -13 14 -19 41 -21 42
-4 41 -22 -2 -22 -53 0 -85 74 -51 115 20 24 72 16 87 -14z"/>
<path d="M4622 198 c-19 -19 -14 -28 18 -28 32 0 37 9 18 28 -15 15 -21 15
-36 0z"/>
</g>
</svg>
